<mxfile host="65bd71144e">
    <diagram name="Page-1" id="c4acf3e9-155e-7222-9cf6-157b1a14988f">
        <mxGraphModel dx="1239" dy="2292" grid="0" gridSize="10" guides="1" tooltips="1" connect="1" arrows="1" fold="1" page="0" pageScale="1" pageWidth="3300" pageHeight="4681" background="none" math="0" shadow="0">
            <root>
                <mxCell id="0"/>
                <mxCell id="1" parent="0"/>
                <mxCell id="2" value="Customer" style="swimlane;fontStyle=1;align=center;verticalAlign=top;childLayout=stackLayout;horizontal=1;startSize=26;horizontalStack=0;resizeParent=1;resizeParentMax=0;resizeLast=0;collapsible=1;marginBottom=0;" parent="1" vertex="1">
                    <mxGeometry x="2738" y="-194" width="315" height="476" as="geometry">
                        <mxRectangle x="1030" y="360" width="100" height="30" as="alternateBounds"/>
                    </mxGeometry>
                </mxCell>
                <mxCell id="3" value="- Name: string" style="text;strokeColor=none;fillColor=none;align=left;verticalAlign=top;spacingLeft=4;spacingRight=4;overflow=hidden;rotatable=0;points=[[0,0.5],[1,0.5]];portConstraint=eastwest;" parent="2" vertex="1">
                    <mxGeometry y="26" width="315" height="26" as="geometry"/>
                </mxCell>
                <mxCell id="10" value="- NIP: string" style="text;strokeColor=none;fillColor=none;align=left;verticalAlign=top;spacingLeft=4;spacingRight=4;overflow=hidden;rotatable=0;points=[[0,0.5],[1,0.5]];portConstraint=eastwest;" parent="2" vertex="1">
                    <mxGeometry y="52" width="315" height="26" as="geometry"/>
                </mxCell>
                <mxCell id="13" value="- Localizations: string[]" style="text;strokeColor=none;fillColor=none;align=left;verticalAlign=top;spacingLeft=4;spacingRight=4;overflow=hidden;rotatable=0;points=[[0,0.5],[1,0.5]];portConstraint=eastwest;" parent="2" vertex="1">
                    <mxGeometry y="78" width="315" height="26" as="geometry"/>
                </mxCell>
                <mxCell id="7" value="- Websites: string[]" style="text;strokeColor=none;fillColor=none;align=left;verticalAlign=top;spacingLeft=4;spacingRight=4;overflow=hidden;rotatable=0;points=[[0,0.5],[1,0.5]];portConstraint=eastwest;" parent="2" vertex="1">
                    <mxGeometry y="104" width="315" height="26" as="geometry"/>
                </mxCell>
                <mxCell id="16" value="- Discount: decimal" style="text;strokeColor=none;fillColor=none;align=left;verticalAlign=top;spacingLeft=4;spacingRight=4;overflow=hidden;rotatable=0;points=[[0,0.5],[1,0.5]];portConstraint=eastwest;" parent="2" vertex="1">
                    <mxGeometry y="130" width="315" height="26" as="geometry"/>
                </mxCell>
                <mxCell id="14" value="- Description: string" style="text;strokeColor=none;fillColor=none;align=left;verticalAlign=top;spacingLeft=4;spacingRight=4;overflow=hidden;rotatable=0;points=[[0,0.5],[1,0.5]];portConstraint=eastwest;" parent="2" vertex="1">
                    <mxGeometry y="156" width="315" height="26" as="geometry"/>
                </mxCell>
                <mxCell id="15" value="- EmployeeList: Employee[]" style="text;strokeColor=none;fillColor=none;align=left;verticalAlign=top;spacingLeft=4;spacingRight=4;overflow=hidden;rotatable=0;points=[[0,0.5],[1,0.5]];portConstraint=eastwest;" parent="2" vertex="1">
                    <mxGeometry y="182" width="315" height="26" as="geometry"/>
                </mxCell>
                <mxCell id="17" value="- WorkstationList: Workstation[]" style="text;strokeColor=none;fillColor=none;align=left;verticalAlign=top;spacingLeft=4;spacingRight=4;overflow=hidden;rotatable=0;points=[[0,0.5],[1,0.5]];portConstraint=eastwest;" parent="2" vertex="1">
                    <mxGeometry y="208" width="315" height="26" as="geometry"/>
                </mxCell>
                <mxCell id="12" value="- OrderList: Order[]" style="text;strokeColor=none;fillColor=none;align=left;verticalAlign=top;spacingLeft=4;spacingRight=4;overflow=hidden;rotatable=0;points=[[0,0.5],[1,0.5]];portConstraint=eastwest;" parent="2" vertex="1">
                    <mxGeometry y="234" width="315" height="26" as="geometry"/>
                </mxCell>
                <mxCell id="4" value="" style="line;strokeWidth=1;fillColor=none;align=left;verticalAlign=middle;spacingTop=-1;spacingLeft=3;spacingRight=3;rotatable=0;labelPosition=right;points=[];portConstraint=eastwest;strokeColor=inherit;" parent="2" vertex="1">
                    <mxGeometry y="260" width="315" height="8" as="geometry"/>
                </mxCell>
                <mxCell id="18" value="+ AddEmployee(Employee e): bool" style="text;strokeColor=none;fillColor=none;align=left;verticalAlign=top;spacingLeft=4;spacingRight=4;overflow=hidden;rotatable=0;points=[[0,0.5],[1,0.5]];portConstraint=eastwest;" parent="2" vertex="1">
                    <mxGeometry y="268" width="315" height="26" as="geometry"/>
                </mxCell>
                <mxCell id="301" value="+ AddWorkstation(Workstation w): bool" style="text;strokeColor=none;fillColor=none;align=left;verticalAlign=top;spacingLeft=4;spacingRight=4;overflow=hidden;rotatable=0;points=[[0,0.5],[1,0.5]];portConstraint=eastwest;" vertex="1" parent="2">
                    <mxGeometry y="294" width="315" height="26" as="geometry"/>
                </mxCell>
                <mxCell id="303" value="+ AddOrder(Order o): bool" style="text;strokeColor=none;fillColor=none;align=left;verticalAlign=top;spacingLeft=4;spacingRight=4;overflow=hidden;rotatable=0;points=[[0,0.5],[1,0.5]];portConstraint=eastwest;" vertex="1" parent="2">
                    <mxGeometry y="320" width="315" height="26" as="geometry"/>
                </mxCell>
                <mxCell id="307" value="+ SetEmployeeStatus(Employee e, bool isActive): bool" style="text;strokeColor=none;fillColor=none;align=left;verticalAlign=top;spacingLeft=4;spacingRight=4;overflow=hidden;rotatable=0;points=[[0,0.5],[1,0.5]];portConstraint=eastwest;" vertex="1" parent="2">
                    <mxGeometry y="346" width="315" height="26" as="geometry"/>
                </mxCell>
                <mxCell id="5" value="+ GetNumberOfEmployees(): int" style="text;strokeColor=none;fillColor=none;align=left;verticalAlign=top;spacingLeft=4;spacingRight=4;overflow=hidden;rotatable=0;points=[[0,0.5],[1,0.5]];portConstraint=eastwest;" parent="2" vertex="1">
                    <mxGeometry y="372" width="315" height="26" as="geometry"/>
                </mxCell>
                <mxCell id="425" value="- IsEmployeeUnique(): bool" style="text;strokeColor=none;fillColor=none;align=left;verticalAlign=top;spacingLeft=4;spacingRight=4;overflow=hidden;rotatable=0;points=[[0,0.5],[1,0.5]];portConstraint=eastwest;" vertex="1" parent="2">
                    <mxGeometry y="398" width="315" height="26" as="geometry"/>
                </mxCell>
                <mxCell id="426" value="- IsWorkstationUnique(): bool" style="text;strokeColor=none;fillColor=none;align=left;verticalAlign=top;spacingLeft=4;spacingRight=4;overflow=hidden;rotatable=0;points=[[0,0.5],[1,0.5]];portConstraint=eastwest;" vertex="1" parent="2">
                    <mxGeometry y="424" width="315" height="26" as="geometry"/>
                </mxCell>
                <mxCell id="427" value="- IsOrderUnique(): bool" style="text;strokeColor=none;fillColor=none;align=left;verticalAlign=top;spacingLeft=4;spacingRight=4;overflow=hidden;rotatable=0;points=[[0,0.5],[1,0.5]];portConstraint=eastwest;" vertex="1" parent="2">
                    <mxGeometry y="450" width="315" height="26" as="geometry"/>
                </mxCell>
                <mxCell id="49" value="DatabaseContext" style="swimlane;fontStyle=1;align=center;verticalAlign=top;childLayout=stackLayout;horizontal=1;startSize=26;horizontalStack=0;resizeParent=1;resizeParentMax=0;resizeLast=0;collapsible=1;marginBottom=0;" parent="1" vertex="1">
                    <mxGeometry x="480" y="450" width="360" height="190" as="geometry">
                        <mxRectangle x="1030" y="360" width="100" height="30" as="alternateBounds"/>
                    </mxGeometry>
                </mxCell>
                <mxCell id="60" value="- Instance: DatabaseSingleton" style="text;strokeColor=none;fillColor=none;align=left;verticalAlign=top;spacingLeft=4;spacingRight=4;overflow=hidden;rotatable=0;points=[[0,0.5],[1,0.5]];portConstraint=eastwest;fontStyle=4" parent="49" vertex="1">
                    <mxGeometry y="26" width="360" height="26" as="geometry"/>
                </mxCell>
                <mxCell id="77" value="- Customers: DbSet&lt;Customer&gt;" style="text;strokeColor=none;fillColor=none;align=left;verticalAlign=top;spacingLeft=4;spacingRight=4;overflow=hidden;rotatable=0;points=[[0,0.5],[1,0.5]];portConstraint=eastwest;" parent="49" vertex="1">
                    <mxGeometry y="52" width="360" height="26" as="geometry"/>
                </mxCell>
                <mxCell id="61" value="" style="line;strokeWidth=1;fillColor=none;align=left;verticalAlign=middle;spacingTop=-1;spacingLeft=3;spacingRight=3;rotatable=0;labelPosition=right;points=[];portConstraint=eastwest;strokeColor=inherit;" parent="49" vertex="1">
                    <mxGeometry y="78" width="360" height="8" as="geometry"/>
                </mxCell>
                <mxCell id="62" value="- DatabaseSingleton()" style="text;strokeColor=none;fillColor=none;align=left;verticalAlign=top;spacingLeft=4;spacingRight=4;overflow=hidden;rotatable=0;points=[[0,0.5],[1,0.5]];portConstraint=eastwest;fontStyle=0" parent="49" vertex="1">
                    <mxGeometry y="86" width="360" height="26" as="geometry"/>
                </mxCell>
                <mxCell id="63" value="+ GetInstance(): DatabaseSingleton" style="text;strokeColor=none;fillColor=none;align=left;verticalAlign=top;spacingLeft=4;spacingRight=4;overflow=hidden;rotatable=0;points=[[0,0.5],[1,0.5]];portConstraint=eastwest;fontStyle=4" parent="49" vertex="1">
                    <mxGeometry y="112" width="360" height="26" as="geometry"/>
                </mxCell>
                <mxCell id="78" value="# OnConfiguring(DbContextOptionsBuilder optionsBuilder): void" style="text;strokeColor=none;fillColor=none;align=left;verticalAlign=top;spacingLeft=4;spacingRight=4;overflow=hidden;rotatable=0;points=[[0,0.5],[1,0.5]];portConstraint=eastwest;" parent="49" vertex="1">
                    <mxGeometry y="138" width="360" height="26" as="geometry"/>
                </mxCell>
                <mxCell id="64" value="+ AddCustomer(Customer c): void" style="text;strokeColor=none;fillColor=none;align=left;verticalAlign=top;spacingLeft=4;spacingRight=4;overflow=hidden;rotatable=0;points=[[0,0.5],[1,0.5]];portConstraint=eastwest;" parent="49" vertex="1">
                    <mxGeometry y="164" width="360" height="26" as="geometry"/>
                </mxCell>
                <mxCell id="69" value="&amp;lt;&amp;lt;import&amp;gt;&amp;gt;" style="edgeStyle=none;html=1;endArrow=open;endSize=12;dashed=1;verticalAlign=bottom;exitX=0.5;exitY=1;exitDx=0;exitDy=0;entryX=0.5;entryY=0;entryDx=0;entryDy=0;" parent="1" source="79" target="71" edge="1">
                    <mxGeometry width="160" relative="1" as="geometry">
                        <mxPoint x="615" y="250" as="sourcePoint"/>
                        <mxPoint x="500" y="260" as="targetPoint"/>
                    </mxGeometry>
                </mxCell>
                <mxCell id="73" style="edgeStyle=none;html=1;entryX=0.5;entryY=0;entryDx=0;entryDy=0;" parent="1" source="71" target="49" edge="1">
                    <mxGeometry relative="1" as="geometry"/>
                </mxCell>
                <mxCell id="71" value="&lt;p style=&quot;margin:0px;margin-top:4px;text-align:center;&quot;&gt;&lt;br&gt;&lt;b&gt;DbContext&lt;/b&gt;&lt;br&gt;&lt;/p&gt;" style="verticalAlign=top;align=left;overflow=fill;fontSize=12;fontFamily=Helvetica;html=1;" parent="1" vertex="1">
                    <mxGeometry x="590" y="360" width="140" height="50" as="geometry"/>
                </mxCell>
                <mxCell id="76" style="edgeStyle=none;html=1;entryX=1;entryY=0;entryDx=0;entryDy=0;fontColor=#000000;" parent="1" source="74" target="49" edge="1">
                    <mxGeometry relative="1" as="geometry"/>
                </mxCell>
                <mxCell id="74" value="&lt;span style=&quot;font-size: 12px; font-weight: 700;&quot;&gt;&lt;font color=&quot;#000000&quot;&gt;Singleton&lt;/font&gt;&lt;/span&gt;" style="shape=note;strokeWidth=2;fontSize=14;size=20;whiteSpace=wrap;html=1;fillColor=#fff2cc;strokeColor=#d6b656;fontColor=#666600;" parent="1" vertex="1">
                    <mxGeometry x="780" y="400" width="110" height="30" as="geometry"/>
                </mxCell>
                <mxCell id="79" value=" System.Data.Entity " style="shape=module;align=left;spacingLeft=20;align=center;verticalAlign=top;fontColor=#FAFAFA;" parent="1" vertex="1">
                    <mxGeometry x="570" y="260" width="180" height="50" as="geometry"/>
                </mxCell>
                <mxCell id="84" value="User" style="swimlane;fontStyle=1;align=center;verticalAlign=top;childLayout=stackLayout;horizontal=1;startSize=26;horizontalStack=0;resizeParent=1;resizeParentMax=0;resizeLast=0;collapsible=1;marginBottom=0;" parent="1" vertex="1">
                    <mxGeometry x="1410" y="-80" width="220" height="164" as="geometry">
                        <mxRectangle x="1030" y="360" width="100" height="30" as="alternateBounds"/>
                    </mxGeometry>
                </mxCell>
                <mxCell id="86" value="- Name: string" style="text;strokeColor=none;fillColor=none;align=left;verticalAlign=top;spacingLeft=4;spacingRight=4;overflow=hidden;rotatable=0;points=[[0,0.5],[1,0.5]];portConstraint=eastwest;" parent="84" vertex="1">
                    <mxGeometry y="26" width="220" height="26" as="geometry"/>
                </mxCell>
                <mxCell id="92" value="- Password: string" style="text;strokeColor=none;fillColor=none;align=left;verticalAlign=top;spacingLeft=4;spacingRight=4;overflow=hidden;rotatable=0;points=[[0,0.5],[1,0.5]];portConstraint=eastwest;" parent="84" vertex="1">
                    <mxGeometry y="52" width="220" height="26" as="geometry"/>
                </mxCell>
                <mxCell id="130" value="- IsAdmin: bool" style="text;strokeColor=none;fillColor=none;align=left;verticalAlign=top;spacingLeft=4;spacingRight=4;overflow=hidden;rotatable=0;points=[[0,0.5],[1,0.5]];portConstraint=eastwest;" vertex="1" parent="84">
                    <mxGeometry y="78" width="220" height="26" as="geometry"/>
                </mxCell>
                <mxCell id="96" value="" style="line;strokeWidth=1;fillColor=none;align=left;verticalAlign=middle;spacingTop=-1;spacingLeft=3;spacingRight=3;rotatable=0;labelPosition=right;points=[];portConstraint=eastwest;strokeColor=inherit;" parent="84" vertex="1">
                    <mxGeometry y="104" width="220" height="8" as="geometry"/>
                </mxCell>
                <mxCell id="98" value="+ ChangePassword(): bool" style="text;strokeColor=none;fillColor=none;align=left;verticalAlign=top;spacingLeft=4;spacingRight=4;overflow=hidden;rotatable=0;points=[[0,0.5],[1,0.5]];portConstraint=eastwest;" parent="84" vertex="1">
                    <mxGeometry y="112" width="220" height="26" as="geometry"/>
                </mxCell>
                <mxCell id="131" value="+ PromoteToAdmin(): void" style="text;strokeColor=none;fillColor=none;align=left;verticalAlign=top;spacingLeft=4;spacingRight=4;overflow=hidden;rotatable=0;points=[[0,0.5],[1,0.5]];portConstraint=eastwest;" vertex="1" parent="84">
                    <mxGeometry y="138" width="220" height="26" as="geometry"/>
                </mxCell>
                <mxCell id="132" value="UserManager" style="swimlane;fontStyle=1;align=center;verticalAlign=top;childLayout=stackLayout;horizontal=1;startSize=26;horizontalStack=0;resizeParent=1;resizeParentMax=0;resizeLast=0;collapsible=1;marginBottom=0;" vertex="1" parent="1">
                    <mxGeometry x="1110" y="-40" width="220" height="112" as="geometry">
                        <mxRectangle x="1030" y="360" width="100" height="30" as="alternateBounds"/>
                    </mxGeometry>
                </mxCell>
                <mxCell id="135" value="- Users: list&lt;User&gt;" style="text;strokeColor=none;fillColor=none;align=left;verticalAlign=top;spacingLeft=4;spacingRight=4;overflow=hidden;rotatable=0;points=[[0,0.5],[1,0.5]];portConstraint=eastwest;" vertex="1" parent="132">
                    <mxGeometry y="26" width="220" height="26" as="geometry"/>
                </mxCell>
                <mxCell id="136" value="" style="line;strokeWidth=1;fillColor=none;align=left;verticalAlign=middle;spacingTop=-1;spacingLeft=3;spacingRight=3;rotatable=0;labelPosition=right;points=[];portConstraint=eastwest;strokeColor=inherit;" vertex="1" parent="132">
                    <mxGeometry y="52" width="220" height="8" as="geometry"/>
                </mxCell>
                <mxCell id="137" value="+ CreateUser(): bool" style="text;strokeColor=none;fillColor=none;align=left;verticalAlign=top;spacingLeft=4;spacingRight=4;overflow=hidden;rotatable=0;points=[[0,0.5],[1,0.5]];portConstraint=eastwest;" vertex="1" parent="132">
                    <mxGeometry y="60" width="220" height="26" as="geometry"/>
                </mxCell>
                <mxCell id="138" value="+ PromoteToAdmin(): void" style="text;strokeColor=none;fillColor=none;align=left;verticalAlign=top;spacingLeft=4;spacingRight=4;overflow=hidden;rotatable=0;points=[[0,0.5],[1,0.5]];portConstraint=eastwest;" vertex="1" parent="132">
                    <mxGeometry y="86" width="220" height="26" as="geometry"/>
                </mxCell>
                <mxCell id="140" value="" style="endArrow=diamondThin;endFill=0;endSize=24;html=1;entryX=1;entryY=0.5;entryDx=0;entryDy=0;" edge="1" parent="1" source="84" target="135">
                    <mxGeometry width="160" relative="1" as="geometry">
                        <mxPoint x="1240" y="180" as="sourcePoint"/>
                        <mxPoint x="1400" y="180" as="targetPoint"/>
                    </mxGeometry>
                </mxCell>
                <mxCell id="142" value="" style="group" vertex="1" connectable="0" parent="1">
                    <mxGeometry x="1090" y="140" width="540" height="248" as="geometry"/>
                </mxCell>
                <mxCell id="106" value="AuthenticationManager" style="swimlane;fontStyle=1;align=center;verticalAlign=top;childLayout=stackLayout;horizontal=1;startSize=26;horizontalStack=0;resizeParent=1;resizeParentMax=0;resizeLast=0;collapsible=1;marginBottom=0;" parent="142" vertex="1">
                    <mxGeometry y="58" width="360" height="190" as="geometry">
                        <mxRectangle x="1030" y="360" width="100" height="30" as="alternateBounds"/>
                    </mxGeometry>
                </mxCell>
                <mxCell id="107" value="- Instance: AuthenticationManager" style="text;strokeColor=none;fillColor=none;align=left;verticalAlign=top;spacingLeft=4;spacingRight=4;overflow=hidden;rotatable=0;points=[[0,0.5],[1,0.5]];portConstraint=eastwest;fontStyle=4" parent="106" vertex="1">
                    <mxGeometry y="26" width="360" height="26" as="geometry"/>
                </mxCell>
                <mxCell id="109" value="" style="line;strokeWidth=1;fillColor=none;align=left;verticalAlign=middle;spacingTop=-1;spacingLeft=3;spacingRight=3;rotatable=0;labelPosition=right;points=[];portConstraint=eastwest;strokeColor=inherit;" parent="106" vertex="1">
                    <mxGeometry y="52" width="360" height="8" as="geometry"/>
                </mxCell>
                <mxCell id="110" value="- AuthenticationManager()" style="text;strokeColor=none;fillColor=none;align=left;verticalAlign=top;spacingLeft=4;spacingRight=4;overflow=hidden;rotatable=0;points=[[0,0.5],[1,0.5]];portConstraint=eastwest;fontStyle=0" parent="106" vertex="1">
                    <mxGeometry y="60" width="360" height="26" as="geometry"/>
                </mxCell>
                <mxCell id="111" value="+ GetInstance(): AuthenticationManager" style="text;strokeColor=none;fillColor=none;align=left;verticalAlign=top;spacingLeft=4;spacingRight=4;overflow=hidden;rotatable=0;points=[[0,0.5],[1,0.5]];portConstraint=eastwest;fontStyle=4" parent="106" vertex="1">
                    <mxGeometry y="86" width="360" height="26" as="geometry"/>
                </mxCell>
                <mxCell id="114" value="+ Authenticate(User u): bool" style="text;strokeColor=none;fillColor=none;align=left;verticalAlign=top;spacingLeft=4;spacingRight=4;overflow=hidden;rotatable=0;points=[[0,0.5],[1,0.5]];portConstraint=eastwest;" vertex="1" parent="106">
                    <mxGeometry y="112" width="360" height="26" as="geometry"/>
                </mxCell>
                <mxCell id="115" value="+ Logout(User u): bool" style="text;strokeColor=none;fillColor=none;align=left;verticalAlign=top;spacingLeft=4;spacingRight=4;overflow=hidden;rotatable=0;points=[[0,0.5],[1,0.5]];portConstraint=eastwest;" vertex="1" parent="106">
                    <mxGeometry y="138" width="360" height="26" as="geometry"/>
                </mxCell>
                <mxCell id="113" value="- ValidatePassword(User u): bool" style="text;strokeColor=none;fillColor=none;align=left;verticalAlign=top;spacingLeft=4;spacingRight=4;overflow=hidden;rotatable=0;points=[[0,0.5],[1,0.5]];portConstraint=eastwest;" parent="106" vertex="1">
                    <mxGeometry y="164" width="360" height="26" as="geometry"/>
                </mxCell>
                <mxCell id="141" value="" style="group" vertex="1" connectable="0" parent="142">
                    <mxGeometry x="310" width="230" height="248" as="geometry"/>
                </mxCell>
                <mxCell id="104" value="&lt;span style=&quot;font-size: 12px; font-weight: 700;&quot;&gt;&lt;font color=&quot;#000000&quot;&gt;Singleton&lt;/font&gt;&lt;/span&gt;" style="shape=note;strokeWidth=2;fontSize=14;size=20;whiteSpace=wrap;html=1;fillColor=#fff2cc;strokeColor=#d6b656;fontColor=#666600;" parent="141" vertex="1">
                    <mxGeometry width="110" height="30" as="geometry"/>
                </mxCell>
                <mxCell id="116" value="&lt;font style=&quot;&quot; color=&quot;#000000&quot;&gt;&lt;span style=&quot;font-size: 12px;&quot;&gt;&lt;b&gt;idea Strategy for&amp;nbsp;&lt;/b&gt;&lt;/span&gt;&lt;span style=&quot;font-size: 12px;&quot;&gt;&lt;b&gt;multiple authentication methods&lt;/b&gt;&lt;/span&gt;&lt;br&gt;&lt;/font&gt;" style="shape=note;strokeWidth=2;fontSize=14;size=20;whiteSpace=wrap;html=1;fillColor=#fff2cc;strokeColor=#d6b656;fontColor=#666600;" vertex="1" parent="141">
                    <mxGeometry x="70" y="48" width="160" height="70" as="geometry"/>
                </mxCell>
                <mxCell id="118" value="&lt;font style=&quot;&quot; color=&quot;#000000&quot;&gt;&lt;span style=&quot;font-size: 12px;&quot;&gt;&lt;b&gt;idea State for behaviors associated with different user type states&lt;/b&gt;&lt;/span&gt;&lt;br&gt;&lt;/font&gt;" style="shape=note;strokeWidth=2;fontSize=14;size=20;whiteSpace=wrap;html=1;fillColor=#fff2cc;strokeColor=#d6b656;fontColor=#666600;" vertex="1" parent="141">
                    <mxGeometry x="70" y="148" width="160" height="100" as="geometry"/>
                </mxCell>
                <mxCell id="119" value="" style="edgeStyle=none;html=1;" edge="1" parent="141" source="116" target="118">
                    <mxGeometry relative="1" as="geometry"/>
                </mxCell>
                <mxCell id="105" style="edgeStyle=none;html=1;fontColor=#FAFAFA;entryX=1;entryY=0;entryDx=0;entryDy=0;" parent="142" source="104" edge="1" target="106">
                    <mxGeometry relative="1" as="geometry">
                        <mxPoint x="99.99999999999955" y="68" as="targetPoint"/>
                    </mxGeometry>
                </mxCell>
                <mxCell id="117" style="edgeStyle=none;html=1;entryX=1.007;entryY=0.096;entryDx=0;entryDy=0;entryPerimeter=0;" edge="1" parent="142" source="116" target="106">
                    <mxGeometry relative="1" as="geometry"/>
                </mxCell>
                <mxCell id="284" value="Employee " style="swimlane;fontStyle=1;align=center;verticalAlign=top;childLayout=stackLayout;horizontal=1;startSize=26;horizontalStack=0;resizeParent=1;resizeParentMax=0;resizeLast=0;collapsible=1;marginBottom=0;" vertex="1" parent="1">
                    <mxGeometry x="2174" y="-372" width="270" height="320" as="geometry">
                        <mxRectangle x="1030" y="360" width="100" height="30" as="alternateBounds"/>
                    </mxGeometry>
                </mxCell>
                <mxCell id="286" value="- Name: string" style="text;strokeColor=none;fillColor=none;align=left;verticalAlign=top;spacingLeft=4;spacingRight=4;overflow=hidden;rotatable=0;points=[[0,0.5],[1,0.5]];portConstraint=eastwest;" vertex="1" parent="284">
                    <mxGeometry y="26" width="270" height="26" as="geometry"/>
                </mxCell>
                <mxCell id="305" value="- IsActive: bool" style="text;strokeColor=none;fillColor=none;align=left;verticalAlign=top;spacingLeft=4;spacingRight=4;overflow=hidden;rotatable=0;points=[[0,0.5],[1,0.5]];portConstraint=eastwest;" vertex="1" parent="284">
                    <mxGeometry y="52" width="270" height="26" as="geometry"/>
                </mxCell>
                <mxCell id="287" value="- Profession: string" style="text;strokeColor=none;fillColor=none;align=left;verticalAlign=top;spacingLeft=4;spacingRight=4;overflow=hidden;rotatable=0;points=[[0,0.5],[1,0.5]];portConstraint=eastwest;" vertex="1" parent="284">
                    <mxGeometry y="78" width="270" height="26" as="geometry"/>
                </mxCell>
                <mxCell id="289" value="- PhoneNums: string[]" style="text;strokeColor=none;fillColor=none;align=left;verticalAlign=top;spacingLeft=4;spacingRight=4;overflow=hidden;rotatable=0;points=[[0,0.5],[1,0.5]];portConstraint=eastwest;" vertex="1" parent="284">
                    <mxGeometry y="104" width="270" height="26" as="geometry"/>
                </mxCell>
                <mxCell id="290" value="- Websites: string[]" style="text;strokeColor=none;fillColor=none;align=left;verticalAlign=top;spacingLeft=4;spacingRight=4;overflow=hidden;rotatable=0;points=[[0,0.5],[1,0.5]];portConstraint=eastwest;" vertex="1" parent="284">
                    <mxGeometry y="130" width="270" height="26" as="geometry"/>
                </mxCell>
                <mxCell id="300" value="- Emails: string[]" style="text;strokeColor=none;fillColor=none;align=left;verticalAlign=top;spacingLeft=4;spacingRight=4;overflow=hidden;rotatable=0;points=[[0,0.5],[1,0.5]];portConstraint=eastwest;" vertex="1" parent="284">
                    <mxGeometry y="156" width="270" height="26" as="geometry"/>
                </mxCell>
                <mxCell id="291" value="- IPs: string" style="text;strokeColor=none;fillColor=none;align=left;verticalAlign=top;spacingLeft=4;spacingRight=4;overflow=hidden;rotatable=0;points=[[0,0.5],[1,0.5]];portConstraint=eastwest;" vertex="1" parent="284">
                    <mxGeometry y="182" width="270" height="26" as="geometry"/>
                </mxCell>
                <mxCell id="292" value="- Description: string" style="text;strokeColor=none;fillColor=none;align=left;verticalAlign=top;spacingLeft=4;spacingRight=4;overflow=hidden;rotatable=0;points=[[0,0.5],[1,0.5]];portConstraint=eastwest;" vertex="1" parent="284">
                    <mxGeometry y="208" width="270" height="26" as="geometry"/>
                </mxCell>
                <mxCell id="294" value="- WorkstationList: Workstation[]" style="text;strokeColor=none;fillColor=none;align=left;verticalAlign=top;spacingLeft=4;spacingRight=4;overflow=hidden;rotatable=0;points=[[0,0.5],[1,0.5]];portConstraint=eastwest;" vertex="1" parent="284">
                    <mxGeometry y="234" width="270" height="26" as="geometry"/>
                </mxCell>
                <mxCell id="296" value="" style="line;strokeWidth=1;fillColor=none;align=left;verticalAlign=middle;spacingTop=-1;spacingLeft=3;spacingRight=3;rotatable=0;labelPosition=right;points=[];portConstraint=eastwest;strokeColor=inherit;" vertex="1" parent="284">
                    <mxGeometry y="260" width="270" height="8" as="geometry"/>
                </mxCell>
                <mxCell id="304" value="+ AddWorkstation(Workstation w): bool" style="text;strokeColor=none;fillColor=none;align=left;verticalAlign=top;spacingLeft=4;spacingRight=4;overflow=hidden;rotatable=0;points=[[0,0.5],[1,0.5]];portConstraint=eastwest;" vertex="1" parent="284">
                    <mxGeometry y="268" width="270" height="26" as="geometry"/>
                </mxCell>
                <mxCell id="306" value="+ SetStatus(bool isActive): void" style="text;strokeColor=none;fillColor=none;align=left;verticalAlign=top;spacingLeft=4;spacingRight=4;overflow=hidden;rotatable=0;points=[[0,0.5],[1,0.5]];portConstraint=eastwest;" vertex="1" parent="284">
                    <mxGeometry y="294" width="270" height="26" as="geometry"/>
                </mxCell>
                <mxCell id="329" value="" style="endArrow=diamondThin;endFill=0;endSize=24;html=1;edgeStyle=orthogonalEdgeStyle;rounded=0;" edge="1" parent="1" source="310" target="294">
                    <mxGeometry width="160" relative="1" as="geometry">
                        <mxPoint x="3000" y="333" as="sourcePoint"/>
                        <mxPoint x="2350" y="251" as="targetPoint"/>
                    </mxGeometry>
                </mxCell>
                <mxCell id="359" value="WorkstationProduct" style="swimlane;fontStyle=1;align=center;verticalAlign=top;childLayout=stackLayout;horizontal=1;startSize=26;horizontalStack=0;resizeParent=1;resizeParentMax=0;resizeLast=0;collapsible=1;marginBottom=0;labelBorderColor=none;" vertex="1" parent="1">
                    <mxGeometry x="2715" y="392" width="270" height="190" as="geometry">
                        <mxRectangle x="1030" y="360" width="100" height="30" as="alternateBounds"/>
                    </mxGeometry>
                </mxCell>
                <mxCell id="361" value="- Name: string" style="text;strokeColor=none;fillColor=none;align=left;verticalAlign=top;spacingLeft=4;spacingRight=4;overflow=hidden;rotatable=0;points=[[0,0.5],[1,0.5]];portConstraint=eastwest;" vertex="1" parent="359">
                    <mxGeometry y="26" width="270" height="26" as="geometry"/>
                </mxCell>
                <mxCell id="364" value="- LicenseRecord: License" style="text;strokeColor=none;fillColor=none;align=left;verticalAlign=top;spacingLeft=4;spacingRight=4;overflow=hidden;rotatable=0;points=[[0,0.5],[1,0.5]];portConstraint=eastwest;" vertex="1" parent="359">
                    <mxGeometry y="52" width="270" height="26" as="geometry"/>
                </mxCell>
                <mxCell id="365" value="- ReleaseNumber: string" style="text;strokeColor=none;fillColor=none;align=left;verticalAlign=top;spacingLeft=4;spacingRight=4;overflow=hidden;rotatable=0;points=[[0,0.5],[1,0.5]];portConstraint=eastwest;" vertex="1" parent="359">
                    <mxGeometry y="78" width="270" height="26" as="geometry"/>
                </mxCell>
                <mxCell id="366" value="- InstallerVerificationCode: string {readOnly}" style="text;strokeColor=none;fillColor=none;align=left;verticalAlign=top;spacingLeft=4;spacingRight=4;overflow=hidden;rotatable=0;points=[[0,0.5],[1,0.5]];portConstraint=eastwest;" vertex="1" parent="359">
                    <mxGeometry y="104" width="270" height="26" as="geometry"/>
                </mxCell>
                <mxCell id="368" value="" style="line;strokeWidth=1;fillColor=none;align=left;verticalAlign=middle;spacingTop=-1;spacingLeft=3;spacingRight=3;rotatable=0;labelPosition=right;points=[];portConstraint=eastwest;strokeColor=inherit;" vertex="1" parent="359">
                    <mxGeometry y="130" width="270" height="8" as="geometry"/>
                </mxCell>
                <mxCell id="370" value="+ UpdateRelease(string r): void" style="text;strokeColor=none;fillColor=none;align=left;verticalAlign=top;spacingLeft=4;spacingRight=4;overflow=hidden;rotatable=0;points=[[0,0.5],[1,0.5]];portConstraint=eastwest;" vertex="1" parent="359">
                    <mxGeometry y="138" width="270" height="26" as="geometry"/>
                </mxCell>
                <mxCell id="643" value="+ IsLicenseActive(): bool" style="text;strokeColor=none;fillColor=none;align=left;verticalAlign=top;spacingLeft=4;spacingRight=4;overflow=hidden;rotatable=0;points=[[0,0.5],[1,0.5]];portConstraint=eastwest;" vertex="1" parent="359">
                    <mxGeometry y="164" width="270" height="26" as="geometry"/>
                </mxCell>
                <mxCell id="375" value="" style="endArrow=diamondThin;endFill=0;endSize=24;html=1;edgeStyle=orthogonalEdgeStyle;rounded=0;" edge="1" parent="1" source="359" target="319">
                    <mxGeometry width="160" relative="1" as="geometry">
                        <mxPoint x="3065" y="78" as="sourcePoint"/>
                        <mxPoint x="2393" y="414" as="targetPoint"/>
                    </mxGeometry>
                </mxCell>
                <mxCell id="377" value="" style="endArrow=diamondThin;endFill=0;endSize=24;html=1;edgeStyle=orthogonalEdgeStyle;rounded=0;" edge="1" parent="1" source="144" target="364">
                    <mxGeometry width="160" relative="1" as="geometry">
                        <mxPoint x="3267" y="538" as="sourcePoint"/>
                        <mxPoint x="3200" y="351" as="targetPoint"/>
                    </mxGeometry>
                </mxCell>
                <mxCell id="310" value="Workstation" style="swimlane;fontStyle=1;align=center;verticalAlign=top;childLayout=stackLayout;horizontal=1;startSize=26;horizontalStack=0;resizeParent=1;resizeParentMax=0;resizeLast=0;collapsible=1;marginBottom=0;" vertex="1" parent="1">
                    <mxGeometry x="1904" y="136" width="270" height="346" as="geometry">
                        <mxRectangle x="1030" y="360" width="100" height="30" as="alternateBounds"/>
                    </mxGeometry>
                </mxCell>
                <mxCell id="311" value="- ID: string" style="text;strokeColor=none;fillColor=none;align=left;verticalAlign=top;spacingLeft=4;spacingRight=4;overflow=hidden;rotatable=0;points=[[0,0.5],[1,0.5]];portConstraint=eastwest;" vertex="1" parent="310">
                    <mxGeometry y="26" width="270" height="26" as="geometry"/>
                </mxCell>
                <mxCell id="312" value="- HasFault: bool" style="text;strokeColor=none;fillColor=none;align=left;verticalAlign=top;spacingLeft=4;spacingRight=4;overflow=hidden;rotatable=0;points=[[0,0.5],[1,0.5]];portConstraint=eastwest;" vertex="1" parent="310">
                    <mxGeometry y="52" width="270" height="26" as="geometry"/>
                </mxCell>
                <mxCell id="313" value="- HardDisk: string" style="text;strokeColor=none;fillColor=none;align=left;verticalAlign=top;spacingLeft=4;spacingRight=4;overflow=hidden;rotatable=0;points=[[0,0.5],[1,0.5]];portConstraint=eastwest;" vertex="1" parent="310">
                    <mxGeometry y="78" width="270" height="26" as="geometry"/>
                </mxCell>
                <mxCell id="317" value="- CPU: string" style="text;strokeColor=none;fillColor=none;align=left;verticalAlign=top;spacingLeft=4;spacingRight=4;overflow=hidden;rotatable=0;points=[[0,0.5],[1,0.5]];portConstraint=eastwest;" vertex="1" parent="310">
                    <mxGeometry y="104" width="270" height="26" as="geometry"/>
                </mxCell>
                <mxCell id="318" value="- Username: string" style="text;strokeColor=none;fillColor=none;align=left;verticalAlign=top;spacingLeft=4;spacingRight=4;overflow=hidden;rotatable=0;points=[[0,0.5],[1,0.5]];portConstraint=eastwest;" vertex="1" parent="310">
                    <mxGeometry y="130" width="270" height="26" as="geometry"/>
                </mxCell>
                <mxCell id="326" value="- ComputerName: string" style="text;strokeColor=none;fillColor=none;align=left;verticalAlign=top;spacingLeft=4;spacingRight=4;overflow=hidden;rotatable=0;points=[[0,0.5],[1,0.5]];portConstraint=eastwest;" vertex="1" parent="310">
                    <mxGeometry y="156" width="270" height="26" as="geometry"/>
                </mxCell>
                <mxCell id="327" value="- BIOSVersion: string" style="text;strokeColor=none;fillColor=none;align=left;verticalAlign=top;spacingLeft=4;spacingRight=4;overflow=hidden;rotatable=0;points=[[0,0.5],[1,0.5]];portConstraint=eastwest;" vertex="1" parent="310">
                    <mxGeometry y="182" width="270" height="26" as="geometry"/>
                </mxCell>
                <mxCell id="324" value="- OS: string" style="text;strokeColor=none;fillColor=none;align=left;verticalAlign=top;spacingLeft=4;spacingRight=4;overflow=hidden;rotatable=0;points=[[0,0.5],[1,0.5]];portConstraint=eastwest;" vertex="1" parent="310">
                    <mxGeometry y="208" width="270" height="26" as="geometry"/>
                </mxCell>
                <mxCell id="328" value="- OSBitVersion: string" style="text;strokeColor=none;fillColor=none;align=left;verticalAlign=top;spacingLeft=4;spacingRight=4;overflow=hidden;rotatable=0;points=[[0,0.5],[1,0.5]];portConstraint=eastwest;" vertex="1" parent="310">
                    <mxGeometry y="234" width="270" height="26" as="geometry"/>
                </mxCell>
                <mxCell id="319" value="- ProductsInstalled: WorkstationProduct[]" style="text;strokeColor=none;fillColor=none;align=left;verticalAlign=top;spacingLeft=4;spacingRight=4;overflow=hidden;rotatable=0;points=[[0,0.5],[1,0.5]];portConstraint=eastwest;" vertex="1" parent="310">
                    <mxGeometry y="260" width="270" height="26" as="geometry"/>
                </mxCell>
                <mxCell id="320" value="" style="line;strokeWidth=1;fillColor=none;align=left;verticalAlign=middle;spacingTop=-1;spacingLeft=3;spacingRight=3;rotatable=0;labelPosition=right;points=[];portConstraint=eastwest;strokeColor=inherit;" vertex="1" parent="310">
                    <mxGeometry y="286" width="270" height="8" as="geometry"/>
                </mxCell>
                <mxCell id="321" value="+ AddProduct(WorkstationProduct wp): bool" style="text;strokeColor=none;fillColor=none;align=left;verticalAlign=top;spacingLeft=4;spacingRight=4;overflow=hidden;rotatable=0;points=[[0,0.5],[1,0.5]];portConstraint=eastwest;" vertex="1" parent="310">
                    <mxGeometry y="294" width="270" height="26" as="geometry"/>
                </mxCell>
                <mxCell id="322" value="+ SetStatus(bool hasFault): void" style="text;strokeColor=none;fillColor=none;align=left;verticalAlign=top;spacingLeft=4;spacingRight=4;overflow=hidden;rotatable=0;points=[[0,0.5],[1,0.5]];portConstraint=eastwest;" vertex="1" parent="310">
                    <mxGeometry y="320" width="270" height="26" as="geometry"/>
                </mxCell>
                <mxCell id="422" value="" style="endArrow=diamondThin;endFill=0;endSize=24;html=1;edgeStyle=orthogonalEdgeStyle;rounded=0;" edge="1" parent="1" source="284" target="15">
                    <mxGeometry width="160" relative="1" as="geometry">
                        <mxPoint x="2343" y="130" as="sourcePoint"/>
                        <mxPoint x="2525" y="130" as="targetPoint"/>
                    </mxGeometry>
                </mxCell>
                <mxCell id="423" value="" style="endArrow=diamondThin;endFill=0;endSize=24;html=1;edgeStyle=orthogonalEdgeStyle;rounded=0;" edge="1" parent="1" source="310" target="17">
                    <mxGeometry width="160" relative="1" as="geometry">
                        <mxPoint x="2319" y="-42" as="sourcePoint"/>
                        <mxPoint x="2755" y="73" as="targetPoint"/>
                    </mxGeometry>
                </mxCell>
                <mxCell id="424" value="" style="endArrow=diamondThin;endFill=0;endSize=24;html=1;edgeStyle=orthogonalEdgeStyle;rounded=0;" edge="1" parent="1" source="347" target="12">
                    <mxGeometry width="160" relative="1" as="geometry">
                        <mxPoint x="3193" y="240" as="sourcePoint"/>
                        <mxPoint x="2755" y="99" as="targetPoint"/>
                        <Array as="points">
                            <mxPoint x="3339" y="53"/>
                        </Array>
                    </mxGeometry>
                </mxCell>
                <mxCell id="444" value="&lt;span style=&quot;font-size: 12px; font-weight: 700;&quot;&gt;&lt;font color=&quot;#000000&quot;&gt;Observer&lt;/font&gt;&lt;/span&gt;" style="shape=note;strokeWidth=2;fontSize=14;size=20;whiteSpace=wrap;html=1;fillColor=#fff2cc;strokeColor=#d6b656;fontColor=#666600;" vertex="1" parent="1">
                    <mxGeometry x="2745" y="644" width="110" height="30" as="geometry"/>
                </mxCell>
                <mxCell id="485" value="" style="group" vertex="1" connectable="0" parent="1">
                    <mxGeometry x="3617" y="-155" width="1139" height="631" as="geometry"/>
                </mxCell>
                <mxCell id="330" value="StoreProduct" style="swimlane;fontStyle=1;align=center;verticalAlign=top;childLayout=stackLayout;horizontal=1;startSize=26;horizontalStack=0;resizeParent=1;resizeParentMax=0;resizeLast=0;collapsible=1;marginBottom=0;" vertex="1" parent="485">
                    <mxGeometry x="242" y="284" width="286" height="320" as="geometry">
                        <mxRectangle x="1030" y="360" width="100" height="30" as="alternateBounds"/>
                    </mxGeometry>
                </mxCell>
                <mxCell id="331" value="- StoreID: string" style="text;strokeColor=none;fillColor=none;align=left;verticalAlign=top;spacingLeft=4;spacingRight=4;overflow=hidden;rotatable=0;points=[[0,0.5],[1,0.5]];portConstraint=eastwest;" vertex="1" parent="330">
                    <mxGeometry y="26" width="286" height="26" as="geometry"/>
                </mxCell>
                <mxCell id="344" value="- Name: string" style="text;strokeColor=none;fillColor=none;align=left;verticalAlign=top;spacingLeft=4;spacingRight=4;overflow=hidden;rotatable=0;points=[[0,0.5],[1,0.5]];portConstraint=eastwest;" vertex="1" parent="330">
                    <mxGeometry y="52" width="286" height="26" as="geometry"/>
                </mxCell>
                <mxCell id="334" value="- Price: NetGrossPrice" style="text;strokeColor=none;fillColor=none;align=left;verticalAlign=top;spacingLeft=4;spacingRight=4;overflow=hidden;rotatable=0;points=[[0,0.5],[1,0.5]];portConstraint=eastwest;" vertex="1" parent="330">
                    <mxGeometry y="78" width="286" height="26" as="geometry"/>
                </mxCell>
                <mxCell id="346" value="- AvailableLicenses: HashSet&lt;ELicenseType&gt;" style="text;strokeColor=none;fillColor=none;align=left;verticalAlign=top;spacingLeft=4;spacingRight=4;overflow=hidden;rotatable=0;points=[[0,0.5],[1,0.5]];portConstraint=eastwest;" vertex="1" parent="330">
                    <mxGeometry y="104" width="286" height="26" as="geometry"/>
                </mxCell>
                <mxCell id="333" value="- RecentRelease: string" style="text;strokeColor=none;fillColor=none;align=left;verticalAlign=top;spacingLeft=4;spacingRight=4;overflow=hidden;rotatable=0;points=[[0,0.5],[1,0.5]];portConstraint=eastwest;" vertex="1" parent="330">
                    <mxGeometry y="130" width="286" height="26" as="geometry"/>
                </mxCell>
                <mxCell id="339" value="- InstallerVerificationCode: string" style="text;strokeColor=none;fillColor=none;align=left;verticalAlign=top;spacingLeft=4;spacingRight=4;overflow=hidden;rotatable=0;points=[[0,0.5],[1,0.5]];portConstraint=eastwest;" vertex="1" parent="330">
                    <mxGeometry y="156" width="286" height="26" as="geometry"/>
                </mxCell>
                <mxCell id="345" value="- IsAvailable: bool" style="text;strokeColor=none;fillColor=none;align=left;verticalAlign=top;spacingLeft=4;spacingRight=4;overflow=hidden;rotatable=0;points=[[0,0.5],[1,0.5]];portConstraint=eastwest;" vertex="1" parent="330">
                    <mxGeometry y="182" width="286" height="26" as="geometry"/>
                </mxCell>
                <mxCell id="341" value="" style="line;strokeWidth=1;fillColor=none;align=left;verticalAlign=middle;spacingTop=-1;spacingLeft=3;spacingRight=3;rotatable=0;labelPosition=right;points=[];portConstraint=eastwest;strokeColor=inherit;" vertex="1" parent="330">
                    <mxGeometry y="208" width="286" height="8" as="geometry"/>
                </mxCell>
                <mxCell id="373" value="+ SetStatus(bool isAvailable): void" style="text;strokeColor=none;fillColor=none;align=left;verticalAlign=top;spacingLeft=4;spacingRight=4;overflow=hidden;rotatable=0;points=[[0,0.5],[1,0.5]];portConstraint=eastwest;" vertex="1" parent="330">
                    <mxGeometry y="216" width="286" height="26" as="geometry"/>
                </mxCell>
                <mxCell id="448" value="+ AddAvailableLicense(ELicenseType lic): void" style="text;strokeColor=none;fillColor=none;align=left;verticalAlign=top;spacingLeft=4;spacingRight=4;overflow=hidden;rotatable=0;points=[[0,0.5],[1,0.5]];portConstraint=eastwest;" vertex="1" parent="330">
                    <mxGeometry y="242" width="286" height="26" as="geometry"/>
                </mxCell>
                <mxCell id="449" value="+ RemoveAvailableLicense(ELicenseType lic): void" style="text;strokeColor=none;fillColor=none;align=left;verticalAlign=top;spacingLeft=4;spacingRight=4;overflow=hidden;rotatable=0;points=[[0,0.5],[1,0.5]];portConstraint=eastwest;" vertex="1" parent="330">
                    <mxGeometry y="268" width="286" height="26" as="geometry"/>
                </mxCell>
                <mxCell id="483" value="+ GetInstallerVerificationCode(): string" style="text;strokeColor=none;fillColor=none;align=left;verticalAlign=top;spacingLeft=4;spacingRight=4;overflow=hidden;rotatable=0;points=[[0,0.5],[1,0.5]];portConstraint=eastwest;" vertex="1" parent="330">
                    <mxGeometry y="294" width="286" height="26" as="geometry"/>
                </mxCell>
                <mxCell id="402" value="" style="endArrow=diamondThin;endFill=0;endSize=24;html=1;edgeStyle=orthogonalEdgeStyle;rounded=0;" edge="1" parent="485" source="396" target="334">
                    <mxGeometry width="160" relative="1" as="geometry">
                        <mxPoint x="455.00030303030326" y="593" as="sourcePoint"/>
                        <mxPoint x="592.9700000000003" y="283" as="targetPoint"/>
                    </mxGeometry>
                </mxCell>
                <mxCell id="418" value="" style="group" vertex="1" connectable="0" parent="485">
                    <mxGeometry y="299.75" width="206" height="299.5" as="geometry"/>
                </mxCell>
                <mxCell id="396" value="NetGrossPrice" style="swimlane;fontStyle=0;childLayout=stackLayout;horizontal=1;startSize=30;horizontalStack=0;resizeParent=1;resizeParentMax=0;resizeLast=0;collapsible=1;marginBottom=0;whiteSpace=wrap;html=1;" vertex="1" parent="418">
                    <mxGeometry width="206" height="150" as="geometry">
                        <mxRectangle x="1570" y="700" width="120" height="30" as="alternateBounds"/>
                    </mxGeometry>
                </mxCell>
                <mxCell id="399" value="&lt;span style=&quot;&quot;&gt;-&amp;nbsp;netPrice: decimal&lt;/span&gt;" style="text;strokeColor=none;fillColor=none;align=left;verticalAlign=middle;spacingLeft=4;spacingRight=4;overflow=hidden;points=[[0,0.5],[1,0.5]];portConstraint=eastwest;rotatable=0;whiteSpace=wrap;html=1;" vertex="1" parent="396">
                    <mxGeometry y="30" width="206" height="30" as="geometry"/>
                </mxCell>
                <mxCell id="401" value="&lt;span style=&quot;&quot;&gt;-&amp;nbsp;grossPrice: decimal&lt;/span&gt;" style="text;strokeColor=none;fillColor=none;align=left;verticalAlign=middle;spacingLeft=4;spacingRight=4;overflow=hidden;points=[[0,0.5],[1,0.5]];portConstraint=eastwest;rotatable=0;whiteSpace=wrap;html=1;" vertex="1" parent="396">
                    <mxGeometry y="60" width="206" height="30" as="geometry"/>
                </mxCell>
                <mxCell id="403" value="" style="line;strokeWidth=1;fillColor=none;align=left;verticalAlign=middle;spacingTop=-1;spacingLeft=3;spacingRight=3;rotatable=0;labelPosition=right;points=[];portConstraint=eastwest;strokeColor=inherit;" vertex="1" parent="396">
                    <mxGeometry y="90" width="206" height="8" as="geometry"/>
                </mxCell>
                <mxCell id="405" value="+ SetNetPrice(decimal net): void" style="text;strokeColor=none;fillColor=none;align=left;verticalAlign=top;spacingLeft=4;spacingRight=4;overflow=hidden;rotatable=0;points=[[0,0.5],[1,0.5]];portConstraint=eastwest;" vertex="1" parent="396">
                    <mxGeometry y="98" width="206" height="26" as="geometry"/>
                </mxCell>
                <mxCell id="406" value="+ SetGrossPrice(decimal net): void" style="text;strokeColor=none;fillColor=none;align=left;verticalAlign=top;spacingLeft=4;spacingRight=4;overflow=hidden;rotatable=0;points=[[0,0.5],[1,0.5]];portConstraint=eastwest;" vertex="1" parent="396">
                    <mxGeometry y="124" width="206" height="26" as="geometry"/>
                </mxCell>
                <mxCell id="410" value="&lt;font color=&quot;#f7f7f7&quot;&gt;net setter sets gross:&lt;br&gt;gross = net * VAT&lt;br&gt;&lt;br&gt;&lt;/font&gt;&lt;span style=&quot;color: rgb(247, 247, 247);&quot;&gt;gross setter sets net:&lt;/span&gt;&lt;br style=&quot;color: rgb(247, 247, 247);&quot;&gt;&lt;span style=&quot;color: rgb(247, 247, 247);&quot;&gt;net = gross / VAT&lt;br&gt;&lt;/span&gt;&lt;font color=&quot;#f7f7f7&quot;&gt;&lt;br&gt;VAT = 1.23&lt;br&gt;&lt;/font&gt;" style="shape=note;size=15;align=left;spacingLeft=10;html=1;whiteSpace=wrap;fontFamily=Helvetica;fontSize=11;fontColor=#030303;" vertex="1" parent="418">
                    <mxGeometry x="28" y="190.5" width="150" height="109" as="geometry"/>
                </mxCell>
                <mxCell id="412" value="" style="edgeStyle=none;endArrow=none;exitX=0.5;exitY=0;dashed=1;html=1;rounded=0;labelBackgroundColor=default;strokeColor=default;fontFamily=Helvetica;fontSize=11;fontColor=#030303;shape=connector;exitDx=0;exitDy=0;exitPerimeter=0;" edge="1" source="410" parent="418" target="406">
                    <mxGeometry x="1" relative="1" as="geometry">
                        <mxPoint x="4132" y="139.5" as="targetPoint"/>
                    </mxGeometry>
                </mxCell>
                <mxCell id="479" style="edgeStyle=orthogonalEdgeStyle;shape=connector;rounded=0;html=1;labelBackgroundColor=default;strokeColor=default;fontFamily=Helvetica;fontSize=11;fontColor=#F7F7F7;endArrow=open;endFill=0;" edge="1" parent="485" source="450" target="330">
                    <mxGeometry relative="1" as="geometry"/>
                </mxCell>
                <mxCell id="450" value="OrderProduct" style="swimlane;fontStyle=1;align=center;verticalAlign=top;childLayout=stackLayout;horizontal=1;startSize=26;horizontalStack=0;resizeParent=1;resizeParentMax=0;resizeLast=0;collapsible=1;marginBottom=0;" vertex="1" parent="485">
                    <mxGeometry x="675" y="323" width="435" height="216" as="geometry">
                        <mxRectangle x="1030" y="360" width="100" height="30" as="alternateBounds"/>
                    </mxGeometry>
                </mxCell>
                <mxCell id="453" value="- StoreProductRecord: StoreProduct" style="text;strokeColor=none;fillColor=none;align=left;verticalAlign=top;spacingLeft=4;spacingRight=4;overflow=hidden;rotatable=0;points=[[0,0.5],[1,0.5]];portConstraint=eastwest;" vertex="1" parent="450">
                    <mxGeometry y="26" width="435" height="26" as="geometry"/>
                </mxCell>
                <mxCell id="455" value="- SelectedLicense: ELicenseType" style="text;strokeColor=none;fillColor=none;align=left;verticalAlign=top;spacingLeft=4;spacingRight=4;overflow=hidden;rotatable=0;points=[[0,0.5],[1,0.5]];portConstraint=eastwest;" vertex="1" parent="450">
                    <mxGeometry y="52" width="435" height="26" as="geometry"/>
                </mxCell>
                <mxCell id="456" value="- Quantity: int" style="text;strokeColor=none;fillColor=none;align=left;verticalAlign=top;spacingLeft=4;spacingRight=4;overflow=hidden;rotatable=0;points=[[0,0.5],[1,0.5]];portConstraint=eastwest;" vertex="1" parent="450">
                    <mxGeometry y="78" width="435" height="26" as="geometry"/>
                </mxCell>
                <mxCell id="457" value="- PriceModifications: ???" style="text;strokeColor=none;fillColor=none;align=left;verticalAlign=top;spacingLeft=4;spacingRight=4;overflow=hidden;rotatable=0;points=[[0,0.5],[1,0.5]];portConstraint=eastwest;" vertex="1" parent="450">
                    <mxGeometry y="104" width="435" height="26" as="geometry"/>
                </mxCell>
                <mxCell id="458" value="" style="line;strokeWidth=1;fillColor=none;align=left;verticalAlign=middle;spacingTop=-1;spacingLeft=3;spacingRight=3;rotatable=0;labelPosition=right;points=[];portConstraint=eastwest;strokeColor=inherit;" vertex="1" parent="450">
                    <mxGeometry y="130" width="435" height="8" as="geometry"/>
                </mxCell>
                <mxCell id="459" value="+ OrderProduct(StoreProduct sp, ELicenseType lic, int qty, ??? pMod)" style="text;strokeColor=none;fillColor=none;align=left;verticalAlign=top;spacingLeft=4;spacingRight=4;overflow=hidden;rotatable=0;points=[[0,0.5],[1,0.5]];portConstraint=eastwest;" vertex="1" parent="450">
                    <mxGeometry y="138" width="435" height="26" as="geometry"/>
                </mxCell>
                <mxCell id="461" value="+ RemoveAvailableLicense(ELicenseType l): void" style="text;strokeColor=none;fillColor=none;align=left;verticalAlign=top;spacingLeft=4;spacingRight=4;overflow=hidden;rotatable=0;points=[[0,0.5],[1,0.5]];portConstraint=eastwest;" vertex="1" parent="450">
                    <mxGeometry y="164" width="435" height="26" as="geometry"/>
                </mxCell>
                <mxCell id="484" value="+ GetInstallerVerificationCode(): string" style="text;strokeColor=none;fillColor=none;align=left;verticalAlign=top;spacingLeft=4;spacingRight=4;overflow=hidden;rotatable=0;points=[[0,0.5],[1,0.5]];portConstraint=eastwest;" vertex="1" parent="450">
                    <mxGeometry y="190" width="435" height="26" as="geometry"/>
                </mxCell>
                <mxCell id="462" value="StoreProductFactory" style="swimlane;fontStyle=1;align=center;verticalAlign=top;childLayout=stackLayout;horizontal=1;startSize=26;horizontalStack=0;resizeParent=1;resizeParentMax=0;resizeLast=0;collapsible=1;marginBottom=0;" vertex="1" parent="485">
                    <mxGeometry x="421" y="122" width="286" height="86" as="geometry">
                        <mxRectangle x="1030" y="360" width="100" height="30" as="alternateBounds"/>
                    </mxGeometry>
                </mxCell>
                <mxCell id="467" value="- Cache: Dictionary&lt;string, StoreProduct&gt;" style="text;strokeColor=none;fillColor=none;align=left;verticalAlign=top;spacingLeft=4;spacingRight=4;overflow=hidden;rotatable=0;points=[[0,0.5],[1,0.5]];portConstraint=eastwest;" vertex="1" parent="462">
                    <mxGeometry y="26" width="286" height="26" as="geometry"/>
                </mxCell>
                <mxCell id="470" value="" style="line;strokeWidth=1;fillColor=none;align=left;verticalAlign=middle;spacingTop=-1;spacingLeft=3;spacingRight=3;rotatable=0;labelPosition=right;points=[];portConstraint=eastwest;strokeColor=inherit;" vertex="1" parent="462">
                    <mxGeometry y="52" width="286" height="8" as="geometry"/>
                </mxCell>
                <mxCell id="471" value="+ GetStoreProduct(string storeID): StoreProduct" style="text;strokeColor=none;fillColor=none;align=left;verticalAlign=top;spacingLeft=4;spacingRight=4;overflow=hidden;rotatable=0;points=[[0,0.5],[1,0.5]];portConstraint=eastwest;" vertex="1" parent="462">
                    <mxGeometry y="60" width="286" height="26" as="geometry"/>
                </mxCell>
                <mxCell id="478" style="edgeStyle=orthogonalEdgeStyle;shape=connector;rounded=0;html=1;labelBackgroundColor=default;strokeColor=default;fontFamily=Helvetica;fontSize=11;fontColor=#F7F7F7;endArrow=open;endFill=0;" edge="1" parent="485" source="450" target="462">
                    <mxGeometry relative="1" as="geometry"/>
                </mxCell>
                <mxCell id="476" value="" style="endArrow=diamondThin;endFill=0;endSize=24;html=1;edgeStyle=orthogonalEdgeStyle;rounded=0;" edge="1" parent="485" source="330" target="467">
                    <mxGeometry width="160" relative="1" as="geometry">
                        <mxPoint x="139" y="181.81818181818176" as="sourcePoint"/>
                        <mxPoint x="263" y="62" as="targetPoint"/>
                    </mxGeometry>
                </mxCell>
                <mxCell id="481" style="edgeStyle=orthogonalEdgeStyle;shape=connector;rounded=0;html=1;entryX=0.5;entryY=0;entryDx=0;entryDy=0;labelBackgroundColor=default;strokeColor=default;fontFamily=Helvetica;fontSize=11;fontColor=#F7F7F7;endArrow=open;endFill=0;" edge="1" parent="485" source="480" target="462">
                    <mxGeometry relative="1" as="geometry"/>
                </mxCell>
                <mxCell id="482" style="edgeStyle=orthogonalEdgeStyle;shape=connector;rounded=0;html=1;entryX=0.702;entryY=0.001;entryDx=0;entryDy=0;entryPerimeter=0;labelBackgroundColor=default;strokeColor=default;fontFamily=Helvetica;fontSize=11;fontColor=#F7F7F7;endArrow=open;endFill=0;" edge="1" parent="485" source="480" target="450">
                    <mxGeometry relative="1" as="geometry"/>
                </mxCell>
                <mxCell id="480" value="client" style="rounded=0;whiteSpace=wrap;html=1;fontFamily=Helvetica;fontSize=11;fontColor=#F7F7F7;" vertex="1" parent="485">
                    <mxGeometry x="510" width="120" height="53" as="geometry"/>
                </mxCell>
                <mxCell id="642" style="edgeStyle=orthogonalEdgeStyle;shape=connector;rounded=0;html=1;entryX=1;entryY=0;entryDx=0;entryDy=0;labelBackgroundColor=default;strokeColor=default;fontFamily=Helvetica;fontSize=11;fontColor=#0F0F0F;endArrow=block;endFill=0;endSize=6;" edge="1" parent="485" source="640" target="450">
                    <mxGeometry relative="1" as="geometry"/>
                </mxCell>
                <mxCell id="640" value="&lt;span style=&quot;color: rgb(3, 3, 3); font-size: 12px;&quot;&gt;&lt;b&gt;Flyweight&lt;/b&gt;&lt;/span&gt;" style="shape=note;strokeWidth=2;fontSize=14;size=0;whiteSpace=wrap;html=1;fillColor=#fff2cc;strokeColor=#d6b656;fontColor=#666600;" vertex="1" parent="485">
                    <mxGeometry x="1021" y="257" width="110" height="30" as="geometry"/>
                </mxCell>
                <mxCell id="641" value="&lt;span style=&quot;color: rgb(3, 3, 3); font-size: 12px;&quot;&gt;product price(s) modifications:&lt;/span&gt;&lt;br style=&quot;color: rgb(3, 3, 3); font-size: 12px;&quot;&gt;&lt;span style=&quot;color: rgb(3, 3, 3); font-size: 12px;&quot;&gt;amount discount&lt;/span&gt;&lt;br style=&quot;color: rgb(3, 3, 3); font-size: 12px;&quot;&gt;&lt;span style=&quot;color: rgb(3, 3, 3); font-size: 12px;&quot;&gt;percentage discount&lt;/span&gt;&lt;br style=&quot;color: rgb(3, 3, 3); font-size: 12px;&quot;&gt;&lt;span style=&quot;color: rgb(3, 3, 3); font-size: 12px;&quot;&gt;fixed price&lt;/span&gt;" style="strokeWidth=1;shadow=0;dashed=0;align=center;html=1;shape=mxgraph.mockup.text.stickyNote2;fontColor=#666666;mainText=;fontSize=17;whiteSpace=wrap;fillColor=#ffffcc;strokeColor=#F62E00;fontFamily=Helvetica;" vertex="1" parent="485">
                    <mxGeometry x="951" y="509" width="212" height="125" as="geometry"/>
                </mxCell>
                <mxCell id="486" value="" style="group" vertex="1" connectable="0" parent="1">
                    <mxGeometry x="2794" y="779" width="1550" height="482" as="geometry"/>
                </mxCell>
                <mxCell id="144" value="License" style="swimlane;fontStyle=1;align=center;verticalAlign=top;childLayout=stackLayout;horizontal=1;startSize=26;horizontalStack=0;resizeParent=1;resizeParentMax=0;resizeLast=0;collapsible=1;marginBottom=0;" vertex="1" parent="486">
                    <mxGeometry x="260" y="72" width="320" height="398" as="geometry">
                        <mxRectangle x="1030" y="360" width="100" height="30" as="alternateBounds"/>
                    </mxGeometry>
                </mxCell>
                <mxCell id="145" value="- Type: ELicenseType" style="text;strokeColor=none;fillColor=none;align=left;verticalAlign=top;spacingLeft=4;spacingRight=4;overflow=hidden;rotatable=0;points=[[0,0.5],[1,0.5]];portConstraint=eastwest;" vertex="1" parent="144">
                    <mxGeometry y="26" width="320" height="26" as="geometry"/>
                </mxCell>
                <mxCell id="155" value="- LeaseTermInDays: int" style="text;strokeColor=none;fillColor=none;align=left;verticalAlign=top;spacingLeft=4;spacingRight=4;overflow=hidden;rotatable=0;points=[[0,0.5],[1,0.5]];portConstraint=eastwest;" vertex="1" parent="144">
                    <mxGeometry y="52" width="320" height="26" as="geometry"/>
                </mxCell>
                <mxCell id="151" value="- RegisterDate: DateTime" style="text;strokeColor=none;fillColor=none;align=left;verticalAlign=top;spacingLeft=4;spacingRight=4;overflow=hidden;rotatable=0;points=[[0,0.5],[1,0.5]];portConstraint=eastwest;" vertex="1" parent="144">
                    <mxGeometry y="78" width="320" height="26" as="geometry"/>
                </mxCell>
                <mxCell id="152" value="- ActivationDate: DateTime" style="text;strokeColor=none;fillColor=none;align=left;verticalAlign=top;spacingLeft=4;spacingRight=4;overflow=hidden;rotatable=0;points=[[0,0.5],[1,0.5]];portConstraint=eastwest;" vertex="1" parent="144">
                    <mxGeometry y="104" width="320" height="26" as="geometry"/>
                </mxCell>
                <mxCell id="153" value="- ActivationCode: string" style="text;strokeColor=none;fillColor=none;align=left;verticalAlign=top;spacingLeft=4;spacingRight=4;overflow=hidden;rotatable=0;points=[[0,0.5],[1,0.5]];portConstraint=eastwest;" vertex="1" parent="144">
                    <mxGeometry y="130" width="320" height="26" as="geometry"/>
                </mxCell>
                <mxCell id="208" value="- ActivationCodeGenVersion: string" style="text;strokeColor=none;fillColor=none;align=left;verticalAlign=top;spacingLeft=4;spacingRight=4;overflow=hidden;rotatable=0;points=[[0,0.5],[1,0.5]];portConstraint=eastwest;" vertex="1" parent="144">
                    <mxGeometry y="156" width="320" height="26" as="geometry"/>
                </mxCell>
                <mxCell id="156" value="- WorkstationObj: Workstation" style="text;strokeColor=none;fillColor=none;align=left;verticalAlign=top;spacingLeft=4;spacingRight=4;overflow=hidden;rotatable=0;points=[[0,0.5],[1,0.5]];portConstraint=eastwest;" vertex="1" parent="144">
                    <mxGeometry y="182" width="320" height="26" as="geometry"/>
                </mxCell>
                <mxCell id="148" value="" style="line;strokeWidth=1;fillColor=none;align=left;verticalAlign=middle;spacingTop=-1;spacingLeft=3;spacingRight=3;rotatable=0;labelPosition=right;points=[];portConstraint=eastwest;strokeColor=inherit;" vertex="1" parent="144">
                    <mxGeometry y="208" width="320" height="8" as="geometry"/>
                </mxCell>
                <mxCell id="149" value="+ ExpirationDate(): DateTime" style="text;strokeColor=none;fillColor=none;align=left;verticalAlign=top;spacingLeft=4;spacingRight=4;overflow=hidden;rotatable=0;points=[[0,0.5],[1,0.5]];portConstraint=eastwest;" vertex="1" parent="144">
                    <mxGeometry y="216" width="320" height="26" as="geometry"/>
                </mxCell>
                <mxCell id="154" value="+ IsActive(): bool" style="text;strokeColor=none;fillColor=none;align=left;verticalAlign=top;spacingLeft=4;spacingRight=4;overflow=hidden;rotatable=0;points=[[0,0.5],[1,0.5]];portConstraint=eastwest;" vertex="1" parent="144">
                    <mxGeometry y="242" width="320" height="26" as="geometry"/>
                </mxCell>
                <mxCell id="147" value="+ IsTimeless: bool" style="text;strokeColor=none;fillColor=none;align=left;verticalAlign=top;spacingLeft=4;spacingRight=4;overflow=hidden;rotatable=0;points=[[0,0.5],[1,0.5]];portConstraint=eastwest;" vertex="1" parent="144">
                    <mxGeometry y="268" width="320" height="26" as="geometry"/>
                </mxCell>
                <mxCell id="212" value="+ SetRegisterDate(DateTime registerDate): void" style="text;strokeColor=none;fillColor=none;align=left;verticalAlign=top;spacingLeft=4;spacingRight=4;overflow=hidden;rotatable=0;points=[[0,0.5],[1,0.5]];portConstraint=eastwest;" vertex="1" parent="144">
                    <mxGeometry y="294" width="320" height="26" as="geometry"/>
                </mxCell>
                <mxCell id="213" value="+ SetActivationDate(DateTime activationDate): void" style="text;strokeColor=none;fillColor=none;align=left;verticalAlign=top;spacingLeft=4;spacingRight=4;overflow=hidden;rotatable=0;points=[[0,0.5],[1,0.5]];portConstraint=eastwest;" vertex="1" parent="144">
                    <mxGeometry y="320" width="320" height="26" as="geometry"/>
                </mxCell>
                <mxCell id="214" value="+ SetActivationCode(string code, string genVersion): void" style="text;strokeColor=none;fillColor=none;align=left;verticalAlign=top;spacingLeft=4;spacingRight=4;overflow=hidden;rotatable=0;points=[[0,0.5],[1,0.5]];portConstraint=eastwest;" vertex="1" parent="144">
                    <mxGeometry y="346" width="320" height="26" as="geometry"/>
                </mxCell>
                <mxCell id="226" value="+ SetWorkstation(Workstation w): void" style="text;strokeColor=none;fillColor=none;align=left;verticalAlign=top;spacingLeft=4;spacingRight=4;overflow=hidden;rotatable=0;points=[[0,0.5],[1,0.5]];portConstraint=eastwest;" vertex="1" parent="144">
                    <mxGeometry y="372" width="320" height="26" as="geometry"/>
                </mxCell>
                <mxCell id="206" style="edgeStyle=orthogonalEdgeStyle;html=1;entryX=0;entryY=0.5;entryDx=0;entryDy=0;endArrow=none;endFill=0;rounded=0;" edge="1" parent="486" source="199" target="145">
                    <mxGeometry relative="1" as="geometry">
                        <mxPoint x="240" y="381" as="targetPoint"/>
                    </mxGeometry>
                </mxCell>
                <mxCell id="199" value="&lt;span style=&quot;&quot;&gt;ELicenseType&lt;/span&gt;" style="swimlane;fontStyle=0;childLayout=stackLayout;horizontal=1;startSize=30;horizontalStack=0;resizeParent=1;resizeParentMax=0;resizeLast=0;collapsible=1;marginBottom=0;whiteSpace=wrap;html=1;" vertex="1" parent="486">
                    <mxGeometry y="110" width="140" height="180" as="geometry">
                        <mxRectangle x="1570" y="700" width="120" height="30" as="alternateBounds"/>
                    </mxGeometry>
                </mxCell>
                <mxCell id="200" value="90_days" style="text;strokeColor=none;fillColor=none;align=left;verticalAlign=middle;spacingLeft=4;spacingRight=4;overflow=hidden;points=[[0,0.5],[1,0.5]];portConstraint=eastwest;rotatable=0;whiteSpace=wrap;html=1;" vertex="1" parent="199">
                    <mxGeometry y="30" width="140" height="30" as="geometry"/>
                </mxCell>
                <mxCell id="201" value="1_year" style="text;strokeColor=none;fillColor=none;align=left;verticalAlign=middle;spacingLeft=4;spacingRight=4;overflow=hidden;points=[[0,0.5],[1,0.5]];portConstraint=eastwest;rotatable=0;whiteSpace=wrap;html=1;" vertex="1" parent="199">
                    <mxGeometry y="60" width="140" height="30" as="geometry"/>
                </mxCell>
                <mxCell id="205" value="3_years" style="text;strokeColor=none;fillColor=none;align=left;verticalAlign=middle;spacingLeft=4;spacingRight=4;overflow=hidden;points=[[0,0.5],[1,0.5]];portConstraint=eastwest;rotatable=0;whiteSpace=wrap;html=1;" vertex="1" parent="199">
                    <mxGeometry y="90" width="140" height="30" as="geometry"/>
                </mxCell>
                <mxCell id="207" value="Lifetime" style="text;strokeColor=none;fillColor=none;align=left;verticalAlign=middle;spacingLeft=4;spacingRight=4;overflow=hidden;points=[[0,0.5],[1,0.5]];portConstraint=eastwest;rotatable=0;whiteSpace=wrap;html=1;" vertex="1" parent="199">
                    <mxGeometry y="120" width="140" height="30" as="geometry"/>
                </mxCell>
                <mxCell id="202" value="Custom" style="text;strokeColor=none;fillColor=none;align=left;verticalAlign=middle;spacingLeft=4;spacingRight=4;overflow=hidden;points=[[0,0.5],[1,0.5]];portConstraint=eastwest;rotatable=0;whiteSpace=wrap;html=1;" vertex="1" parent="199">
                    <mxGeometry y="150" width="140" height="30" as="geometry"/>
                </mxCell>
                <mxCell id="210" value="&lt;&lt;interface&gt;&gt;&#10;ILicenseBuilder" style="swimlane;fontStyle=1;align=center;verticalAlign=top;childLayout=stackLayout;horizontal=1;startSize=40;horizontalStack=0;resizeParent=1;resizeParentMax=0;resizeLast=0;collapsible=1;marginBottom=0;" vertex="1" parent="486">
                    <mxGeometry x="780" y="150" width="330" height="118" as="geometry">
                        <mxRectangle x="1030" y="360" width="100" height="30" as="alternateBounds"/>
                    </mxGeometry>
                </mxCell>
                <mxCell id="211" value="+ SetType(): void" style="text;strokeColor=none;fillColor=none;align=left;verticalAlign=top;spacingLeft=4;spacingRight=4;overflow=hidden;rotatable=0;points=[[0,0.5],[1,0.5]];portConstraint=eastwest;" vertex="1" parent="210">
                    <mxGeometry y="40" width="330" height="26" as="geometry"/>
                </mxCell>
                <mxCell id="252" value="+ GetResult(): License" style="text;strokeColor=none;fillColor=none;align=left;verticalAlign=top;spacingLeft=4;spacingRight=4;overflow=hidden;rotatable=0;points=[[0,0.5],[1,0.5]];portConstraint=eastwest;" vertex="1" parent="210">
                    <mxGeometry y="66" width="330" height="26" as="geometry"/>
                </mxCell>
                <mxCell id="215" value="+ Reset(): void" style="text;strokeColor=none;fillColor=none;align=left;verticalAlign=top;spacingLeft=4;spacingRight=4;overflow=hidden;rotatable=0;points=[[0,0.5],[1,0.5]];portConstraint=eastwest;" vertex="1" parent="210">
                    <mxGeometry y="92" width="330" height="26" as="geometry"/>
                </mxCell>
                <mxCell id="228" value="TimeLicenseBuilder" style="swimlane;fontStyle=1;align=center;verticalAlign=top;childLayout=stackLayout;horizontal=1;startSize=30;horizontalStack=0;resizeParent=1;resizeParentMax=0;resizeLast=0;collapsible=1;marginBottom=0;" vertex="1" parent="486">
                    <mxGeometry x="710" y="340" width="220" height="142" as="geometry">
                        <mxRectangle x="1030" y="360" width="100" height="30" as="alternateBounds"/>
                    </mxGeometry>
                </mxCell>
                <mxCell id="229" value="- result: License" style="text;strokeColor=none;fillColor=none;align=left;verticalAlign=top;spacingLeft=4;spacingRight=4;overflow=hidden;rotatable=0;points=[[0,0.5],[1,0.5]];portConstraint=eastwest;" vertex="1" parent="228">
                    <mxGeometry y="30" width="220" height="26" as="geometry"/>
                </mxCell>
                <mxCell id="235" value="" style="line;strokeWidth=1;fillColor=none;align=left;verticalAlign=middle;spacingTop=-1;spacingLeft=3;spacingRight=3;rotatable=0;labelPosition=right;points=[];portConstraint=eastwest;strokeColor=inherit;" vertex="1" parent="228">
                    <mxGeometry y="56" width="220" height="8" as="geometry"/>
                </mxCell>
                <mxCell id="237" value="+ SetType(): void" style="text;strokeColor=none;fillColor=none;align=left;verticalAlign=top;spacingLeft=4;spacingRight=4;overflow=hidden;rotatable=0;points=[[0,0.5],[1,0.5]];portConstraint=eastwest;" vertex="1" parent="228">
                    <mxGeometry y="64" width="220" height="26" as="geometry"/>
                </mxCell>
                <mxCell id="238" value="+ GetResult(): License" style="text;strokeColor=none;fillColor=none;align=left;verticalAlign=top;spacingLeft=4;spacingRight=4;overflow=hidden;rotatable=0;points=[[0,0.5],[1,0.5]];portConstraint=eastwest;" vertex="1" parent="228">
                    <mxGeometry y="90" width="220" height="26" as="geometry"/>
                </mxCell>
                <mxCell id="239" value="+ Reset(): void" style="text;strokeColor=none;fillColor=none;align=left;verticalAlign=top;spacingLeft=4;spacingRight=4;overflow=hidden;rotatable=0;points=[[0,0.5],[1,0.5]];portConstraint=eastwest;" vertex="1" parent="228">
                    <mxGeometry y="116" width="220" height="26" as="geometry"/>
                </mxCell>
                <mxCell id="227" style="edgeStyle=orthogonalEdgeStyle;html=1;entryX=0.5;entryY=0;entryDx=0;entryDy=0;endArrow=classic;endFill=1;elbow=vertical;rounded=0;" edge="1" parent="486" source="210" target="228">
                    <mxGeometry relative="1" as="geometry">
                        <mxPoint x="680" y="410" as="targetPoint"/>
                    </mxGeometry>
                </mxCell>
                <mxCell id="240" value="TimelessLicenseBuilder" style="swimlane;fontStyle=1;align=center;verticalAlign=top;childLayout=stackLayout;horizontal=1;startSize=30;horizontalStack=0;resizeParent=1;resizeParentMax=0;resizeLast=0;collapsible=1;marginBottom=0;" vertex="1" parent="486">
                    <mxGeometry x="960" y="340" width="220" height="142" as="geometry">
                        <mxRectangle x="1030" y="360" width="100" height="30" as="alternateBounds"/>
                    </mxGeometry>
                </mxCell>
                <mxCell id="241" value="- result: License" style="text;strokeColor=none;fillColor=none;align=left;verticalAlign=top;spacingLeft=4;spacingRight=4;overflow=hidden;rotatable=0;points=[[0,0.5],[1,0.5]];portConstraint=eastwest;" vertex="1" parent="240">
                    <mxGeometry y="30" width="220" height="26" as="geometry"/>
                </mxCell>
                <mxCell id="242" value="" style="line;strokeWidth=1;fillColor=none;align=left;verticalAlign=middle;spacingTop=-1;spacingLeft=3;spacingRight=3;rotatable=0;labelPosition=right;points=[];portConstraint=eastwest;strokeColor=inherit;" vertex="1" parent="240">
                    <mxGeometry y="56" width="220" height="8" as="geometry"/>
                </mxCell>
                <mxCell id="243" value="+ SetType(): void" style="text;strokeColor=none;fillColor=none;align=left;verticalAlign=top;spacingLeft=4;spacingRight=4;overflow=hidden;rotatable=0;points=[[0,0.5],[1,0.5]];portConstraint=eastwest;" vertex="1" parent="240">
                    <mxGeometry y="64" width="220" height="26" as="geometry"/>
                </mxCell>
                <mxCell id="248" value="+ GetResult(): License" style="text;strokeColor=none;fillColor=none;align=left;verticalAlign=top;spacingLeft=4;spacingRight=4;overflow=hidden;rotatable=0;points=[[0,0.5],[1,0.5]];portConstraint=eastwest;" vertex="1" parent="240">
                    <mxGeometry y="90" width="220" height="26" as="geometry"/>
                </mxCell>
                <mxCell id="249" value="+ Reset(): void" style="text;strokeColor=none;fillColor=none;align=left;verticalAlign=top;spacingLeft=4;spacingRight=4;overflow=hidden;rotatable=0;points=[[0,0.5],[1,0.5]];portConstraint=eastwest;" vertex="1" parent="240">
                    <mxGeometry y="116" width="220" height="26" as="geometry"/>
                </mxCell>
                <mxCell id="250" style="edgeStyle=orthogonalEdgeStyle;rounded=0;html=1;entryX=0.5;entryY=0;entryDx=0;entryDy=0;endArrow=classic;endFill=1;elbow=vertical;" edge="1" parent="486" source="210" target="240">
                    <mxGeometry relative="1" as="geometry"/>
                </mxCell>
                <mxCell id="254" style="edgeStyle=orthogonalEdgeStyle;rounded=0;html=1;endArrow=classic;endFill=1;elbow=vertical;" edge="1" parent="486" source="252" target="144">
                    <mxGeometry relative="1" as="geometry"/>
                </mxCell>
                <mxCell id="261" style="edgeStyle=orthogonalEdgeStyle;rounded=0;html=1;entryX=1;entryY=0;entryDx=0;entryDy=0;endArrow=classic;endFill=1;elbow=vertical;" edge="1" parent="486" source="260" target="210">
                    <mxGeometry relative="1" as="geometry"/>
                </mxCell>
                <mxCell id="260" value="&lt;font color=&quot;#000000&quot;&gt;&lt;span style=&quot;font-size: 12px;&quot;&gt;&lt;b&gt;Buildier&lt;/b&gt;&lt;/span&gt;&lt;/font&gt;" style="shape=note;strokeWidth=2;fontSize=14;size=20;whiteSpace=wrap;html=1;fillColor=#fff2cc;strokeColor=#d6b656;fontColor=#666600;" vertex="1" parent="486">
                    <mxGeometry x="1010" y="80" width="110" height="30" as="geometry"/>
                </mxCell>
                <mxCell id="272" value="LicenseDirector" style="swimlane;fontStyle=1;align=center;verticalAlign=top;childLayout=stackLayout;horizontal=1;startSize=30;horizontalStack=0;resizeParent=1;resizeParentMax=0;resizeLast=0;collapsible=1;marginBottom=0;" vertex="1" parent="486">
                    <mxGeometry x="1220" width="330" height="142" as="geometry">
                        <mxRectangle x="1030" y="360" width="100" height="30" as="alternateBounds"/>
                    </mxGeometry>
                </mxCell>
                <mxCell id="273" value="- builder: ILicenseBuilder" style="text;strokeColor=none;fillColor=none;align=left;verticalAlign=top;spacingLeft=4;spacingRight=4;overflow=hidden;rotatable=0;points=[[0,0.5],[1,0.5]];portConstraint=eastwest;" vertex="1" parent="272">
                    <mxGeometry y="30" width="330" height="26" as="geometry"/>
                </mxCell>
                <mxCell id="274" value="" style="line;strokeWidth=1;fillColor=none;align=left;verticalAlign=middle;spacingTop=-1;spacingLeft=3;spacingRight=3;rotatable=0;labelPosition=right;points=[];portConstraint=eastwest;strokeColor=inherit;" vertex="1" parent="272">
                    <mxGeometry y="56" width="330" height="8" as="geometry"/>
                </mxCell>
                <mxCell id="275" value="+ LicenseBuilderDirector(ILicenseBuilder b)" style="text;strokeColor=none;fillColor=none;align=left;verticalAlign=top;spacingLeft=4;spacingRight=4;overflow=hidden;rotatable=0;points=[[0,0.5],[1,0.5]];portConstraint=eastwest;" vertex="1" parent="272">
                    <mxGeometry y="64" width="330" height="26" as="geometry"/>
                </mxCell>
                <mxCell id="280" value="+ ChangeBuilder(): void" style="text;strokeColor=none;fillColor=none;align=left;verticalAlign=top;spacingLeft=4;spacingRight=4;overflow=hidden;rotatable=0;points=[[0,0.5],[1,0.5]];portConstraint=eastwest;" vertex="1" parent="272">
                    <mxGeometry y="90" width="330" height="26" as="geometry"/>
                </mxCell>
                <mxCell id="281" value="+ Make(ELicenseType t): void" style="text;strokeColor=none;fillColor=none;align=left;verticalAlign=top;spacingLeft=4;spacingRight=4;overflow=hidden;rotatable=0;points=[[0,0.5],[1,0.5]];portConstraint=eastwest;" vertex="1" parent="272">
                    <mxGeometry y="116" width="330" height="26" as="geometry"/>
                </mxCell>
                <mxCell id="283" value="" style="endArrow=diamondThin;endFill=0;endSize=24;html=1;entryX=0;entryY=0.5;entryDx=0;entryDy=0;edgeStyle=orthogonalEdgeStyle;rounded=0;" edge="1" parent="486" source="210" target="273">
                    <mxGeometry width="160" relative="1" as="geometry">
                        <mxPoint x="1140" y="211.26315789473688" as="sourcePoint"/>
                        <mxPoint x="1060" y="210" as="targetPoint"/>
                    </mxGeometry>
                </mxCell>
                <mxCell id="555" value="" style="group" vertex="1" connectable="0" parent="1">
                    <mxGeometry x="3400" y="-1060" width="509" height="86" as="geometry"/>
                </mxCell>
                <mxCell id="526" value="PDFStorage" style="swimlane;fontStyle=1;align=center;verticalAlign=top;childLayout=stackLayout;horizontal=1;startSize=26;horizontalStack=0;resizeParent=1;resizeParentMax=0;resizeLast=0;collapsible=1;marginBottom=0;" vertex="1" parent="555">
                    <mxGeometry width="313" height="86" as="geometry">
                        <mxRectangle x="1030" y="360" width="100" height="30" as="alternateBounds"/>
                    </mxGeometry>
                </mxCell>
                <mxCell id="527" value="- Context: Order" style="text;strokeColor=none;fillColor=none;align=left;verticalAlign=top;spacingLeft=4;spacingRight=4;overflow=hidden;rotatable=0;points=[[0,0.5],[1,0.5]];portConstraint=eastwest;" vertex="1" parent="526">
                    <mxGeometry y="26" width="313" height="26" as="geometry"/>
                </mxCell>
                <mxCell id="528" value="" style="line;strokeWidth=1;fillColor=none;align=left;verticalAlign=middle;spacingTop=-1;spacingLeft=3;spacingRight=3;rotatable=0;labelPosition=right;points=[];portConstraint=eastwest;strokeColor=inherit;" vertex="1" parent="526">
                    <mxGeometry y="52" width="313" height="8" as="geometry"/>
                </mxCell>
                <mxCell id="529" value="+ SetContext(Order o): void" style="text;strokeColor=none;fillColor=none;align=left;verticalAlign=top;spacingLeft=4;spacingRight=4;overflow=hidden;rotatable=0;points=[[0,0.5],[1,0.5]];portConstraint=eastwest;" vertex="1" parent="526">
                    <mxGeometry y="60" width="313" height="26" as="geometry"/>
                </mxCell>
                <mxCell id="554" value="invoice PDF" style="strokeWidth=1;shadow=0;dashed=0;align=center;html=1;shape=mxgraph.mockup.text.stickyNote2;fontColor=#666666;mainText=;fontSize=17;whiteSpace=wrap;fillColor=#ffffcc;strokeColor=#F62E00;fontFamily=Helvetica;" vertex="1" parent="555">
                    <mxGeometry x="327" y="7" width="182" height="72" as="geometry"/>
                </mxCell>
                <mxCell id="562" value="" style="group" vertex="1" connectable="0" parent="1">
                    <mxGeometry x="3106" y="-909" width="2046" height="530" as="geometry"/>
                </mxCell>
                <mxCell id="553" value="" style="group" vertex="1" connectable="0" parent="562">
                    <mxGeometry width="1733" height="530" as="geometry"/>
                </mxCell>
                <mxCell id="385" value="&lt;span style=&quot;font-size: 12px;&quot;&gt;&lt;font color=&quot;#030303&quot;&gt;State&lt;/font&gt;&lt;/span&gt;" style="shape=note;strokeWidth=2;fontSize=14;size=20;whiteSpace=wrap;html=1;fillColor=#fff2cc;strokeColor=#d6b656;fontColor=#666600;fontFamily=Helvetica;" vertex="1" parent="553">
                    <mxGeometry x="625" width="77" height="33" as="geometry"/>
                </mxCell>
                <mxCell id="347" value="Order" style="swimlane;fontStyle=1;align=center;verticalAlign=top;childLayout=stackLayout;horizontal=1;startSize=26;horizontalStack=0;resizeParent=1;resizeParentMax=0;resizeLast=0;collapsible=1;marginBottom=0;" vertex="1" parent="553">
                    <mxGeometry x="190" y="80" width="473" height="450" as="geometry">
                        <mxRectangle x="1030" y="360" width="100" height="30" as="alternateBounds"/>
                    </mxGeometry>
                </mxCell>
                <mxCell id="348" value="- ID: string" style="text;strokeColor=none;fillColor=none;align=left;verticalAlign=top;spacingLeft=4;spacingRight=4;overflow=hidden;rotatable=0;points=[[0,0.5],[1,0.5]];portConstraint=eastwest;" vertex="1" parent="347">
                    <mxGeometry y="26" width="473" height="26" as="geometry"/>
                </mxCell>
                <mxCell id="349" value="- ContractNumber: string" style="text;strokeColor=none;fillColor=none;align=left;verticalAlign=top;spacingLeft=4;spacingRight=4;overflow=hidden;rotatable=0;points=[[0,0.5],[1,0.5]];portConstraint=eastwest;" vertex="1" parent="347">
                    <mxGeometry y="52" width="473" height="26" as="geometry"/>
                </mxCell>
                <mxCell id="378" value="- DateOfOrder: DateTime" style="text;strokeColor=none;fillColor=none;align=left;verticalAlign=top;spacingLeft=4;spacingRight=4;overflow=hidden;rotatable=0;points=[[0,0.5],[1,0.5]];portConstraint=eastwest;" vertex="1" parent="347">
                    <mxGeometry y="78" width="473" height="26" as="geometry"/>
                </mxCell>
                <mxCell id="416" value="- State: OrderState" style="text;strokeColor=none;fillColor=none;align=left;verticalAlign=top;spacingLeft=4;spacingRight=4;overflow=hidden;rotatable=0;points=[[0,0.5],[1,0.5]];portConstraint=eastwest;" vertex="1" parent="347">
                    <mxGeometry y="104" width="473" height="26" as="geometry"/>
                </mxCell>
                <mxCell id="386" value="- PaymentMethod: EPaymentMethodType" style="text;strokeColor=none;fillColor=none;align=left;verticalAlign=top;spacingLeft=4;spacingRight=4;overflow=hidden;rotatable=0;points=[[0,0.5],[1,0.5]];portConstraint=eastwest;" vertex="1" parent="347">
                    <mxGeometry y="130" width="473" height="26" as="geometry"/>
                </mxCell>
                <mxCell id="394" value="- DateOfPayment: DateTime" style="text;strokeColor=none;fillColor=none;align=left;verticalAlign=top;spacingLeft=4;spacingRight=4;overflow=hidden;rotatable=0;points=[[0,0.5],[1,0.5]];portConstraint=eastwest;" vertex="1" parent="347">
                    <mxGeometry y="156" width="473" height="26" as="geometry"/>
                </mxCell>
                <mxCell id="350" value="- InvoiceFilePath: string" style="text;strokeColor=none;fillColor=none;align=left;verticalAlign=top;spacingLeft=4;spacingRight=4;overflow=hidden;rotatable=0;points=[[0,0.5],[1,0.5]];portConstraint=eastwest;" vertex="1" parent="347">
                    <mxGeometry y="182" width="473" height="26" as="geometry"/>
                </mxCell>
                <mxCell id="355" value="- OrderProductList: OrderProduct[]" style="text;strokeColor=none;fillColor=none;align=left;verticalAlign=top;spacingLeft=4;spacingRight=4;overflow=hidden;rotatable=0;points=[[0,0.5],[1,0.5]];portConstraint=eastwest;" vertex="1" parent="347">
                    <mxGeometry y="208" width="473" height="26" as="geometry"/>
                </mxCell>
                <mxCell id="415" value="- Description: string" style="text;strokeColor=none;fillColor=none;align=left;verticalAlign=top;spacingLeft=4;spacingRight=4;overflow=hidden;rotatable=0;points=[[0,0.5],[1,0.5]];portConstraint=eastwest;" vertex="1" parent="347">
                    <mxGeometry y="234" width="473" height="26" as="geometry"/>
                </mxCell>
                <mxCell id="356" value="" style="line;strokeWidth=1;fillColor=none;align=left;verticalAlign=middle;spacingTop=-1;spacingLeft=3;spacingRight=3;rotatable=0;labelPosition=right;points=[];portConstraint=eastwest;strokeColor=inherit;" vertex="1" parent="347">
                    <mxGeometry y="260" width="473" height="8" as="geometry"/>
                </mxCell>
                <mxCell id="357" value="+ Order(string id, IOrderState initialState, string contractNum, DateTime dateOfOrder)" style="text;strokeColor=none;fillColor=none;align=left;verticalAlign=top;spacingLeft=4;spacingRight=4;overflow=hidden;rotatable=0;points=[[0,0.5],[1,0.5]];portConstraint=eastwest;" vertex="1" parent="347">
                    <mxGeometry y="268" width="473" height="26" as="geometry"/>
                </mxCell>
                <mxCell id="493" value="+ ChangeState(IOrderState s): bool" style="text;strokeColor=none;fillColor=none;align=left;verticalAlign=top;spacingLeft=4;spacingRight=4;overflow=hidden;rotatable=0;points=[[0,0.5],[1,0.5]];portConstraint=eastwest;" vertex="1" parent="347">
                    <mxGeometry y="294" width="473" height="26" as="geometry"/>
                </mxCell>
                <mxCell id="521" value="+ AddPayment(EPaymentMethodType method, DateTime date): bool" style="text;strokeColor=none;fillColor=none;align=left;verticalAlign=top;spacingLeft=4;spacingRight=4;overflow=hidden;rotatable=0;points=[[0,0.5],[1,0.5]];portConstraint=eastwest;" vertex="1" parent="347">
                    <mxGeometry y="320" width="473" height="26" as="geometry"/>
                </mxCell>
                <mxCell id="525" value="+ AddInvoice(string path): bool" style="text;strokeColor=none;fillColor=none;align=left;verticalAlign=top;spacingLeft=4;spacingRight=4;overflow=hidden;rotatable=0;points=[[0,0.5],[1,0.5]];portConstraint=eastwest;" vertex="1" parent="347">
                    <mxGeometry y="346" width="473" height="26" as="geometry"/>
                </mxCell>
                <mxCell id="516" value="+ AddProduct(OrderProduct op): bool" style="text;strokeColor=none;fillColor=none;align=left;verticalAlign=top;spacingLeft=4;spacingRight=4;overflow=hidden;rotatable=0;points=[[0,0.5],[1,0.5]];portConstraint=eastwest;" vertex="1" parent="347">
                    <mxGeometry y="372" width="473" height="26" as="geometry"/>
                </mxCell>
                <mxCell id="514" value="+ RemoveProduct(OrderProduct op): bool" style="text;strokeColor=none;fillColor=none;align=left;verticalAlign=top;spacingLeft=4;spacingRight=4;overflow=hidden;rotatable=0;points=[[0,0.5],[1,0.5]];portConstraint=eastwest;" vertex="1" parent="347">
                    <mxGeometry y="398" width="473" height="26" as="geometry"/>
                </mxCell>
                <mxCell id="515" value="+ GetOrderValue(): decimal" style="text;strokeColor=none;fillColor=none;align=left;verticalAlign=top;spacingLeft=4;spacingRight=4;overflow=hidden;rotatable=0;points=[[0,0.5],[1,0.5]];portConstraint=eastwest;" vertex="1" parent="347">
                    <mxGeometry y="424" width="473" height="26" as="geometry"/>
                </mxCell>
                <mxCell id="497" style="edgeStyle=orthogonalEdgeStyle;shape=connector;rounded=0;html=1;entryX=1;entryY=0;entryDx=0;entryDy=0;labelBackgroundColor=default;strokeColor=default;fontFamily=Helvetica;fontSize=11;fontColor=#F7F7F7;endArrow=open;endFill=0;" edge="1" parent="553" source="385" target="347">
                    <mxGeometry relative="1" as="geometry"/>
                </mxCell>
                <mxCell id="387" value="&lt;span style=&quot;&quot;&gt;E&lt;/span&gt;&lt;span style=&quot;text-align: left;&quot;&gt;PaymentMethod&lt;/span&gt;&lt;span style=&quot;&quot;&gt;Type&lt;/span&gt;" style="swimlane;fontStyle=0;childLayout=stackLayout;horizontal=1;startSize=30;horizontalStack=0;resizeParent=1;resizeParentMax=0;resizeLast=0;collapsible=1;marginBottom=0;whiteSpace=wrap;html=1;" vertex="1" parent="553">
                    <mxGeometry y="62" width="140" height="120" as="geometry">
                        <mxRectangle x="1570" y="700" width="120" height="30" as="alternateBounds"/>
                    </mxGeometry>
                </mxCell>
                <mxCell id="389" value="BankTransfer" style="text;strokeColor=none;fillColor=none;align=left;verticalAlign=middle;spacingLeft=4;spacingRight=4;overflow=hidden;points=[[0,0.5],[1,0.5]];portConstraint=eastwest;rotatable=0;whiteSpace=wrap;html=1;" vertex="1" parent="387">
                    <mxGeometry y="30" width="140" height="30" as="geometry"/>
                </mxCell>
                <mxCell id="390" value="PayU" style="text;strokeColor=none;fillColor=none;align=left;verticalAlign=middle;spacingLeft=4;spacingRight=4;overflow=hidden;points=[[0,0.5],[1,0.5]];portConstraint=eastwest;rotatable=0;whiteSpace=wrap;html=1;" vertex="1" parent="387">
                    <mxGeometry y="60" width="140" height="30" as="geometry"/>
                </mxCell>
                <mxCell id="391" value="Masterpass" style="text;strokeColor=none;fillColor=none;align=left;verticalAlign=middle;spacingLeft=4;spacingRight=4;overflow=hidden;points=[[0,0.5],[1,0.5]];portConstraint=eastwest;rotatable=0;whiteSpace=wrap;html=1;" vertex="1" parent="387">
                    <mxGeometry y="90" width="140" height="30" as="geometry"/>
                </mxCell>
                <mxCell id="413" value="" style="endArrow=diamondThin;endFill=0;endSize=24;html=1;edgeStyle=orthogonalEdgeStyle;rounded=0;" edge="1" parent="553" source="387" target="386">
                    <mxGeometry width="160" relative="1" as="geometry">
                        <mxPoint x="4063" y="110.5" as="sourcePoint"/>
                        <mxPoint x="4002" y="110.5" as="targetPoint"/>
                    </mxGeometry>
                </mxCell>
                <mxCell id="487" value="&lt;&lt;interface&gt;&gt;&#10;IOrderState" style="swimlane;fontStyle=1;align=center;verticalAlign=top;childLayout=stackLayout;horizontal=1;startSize=40;horizontalStack=0;resizeParent=1;resizeParentMax=0;resizeLast=0;collapsible=1;marginBottom=0;" vertex="1" parent="553">
                    <mxGeometry x="1283" y="164" width="229" height="66" as="geometry">
                        <mxRectangle x="1030" y="360" width="100" height="30" as="alternateBounds"/>
                    </mxGeometry>
                </mxCell>
                <mxCell id="496" value="+ AddProduct(Product p): bool" style="text;strokeColor=none;fillColor=none;align=left;verticalAlign=top;spacingLeft=4;spacingRight=4;overflow=hidden;rotatable=0;points=[[0,0.5],[1,0.5]];portConstraint=eastwest;" vertex="1" parent="487">
                    <mxGeometry y="40" width="229" height="26" as="geometry"/>
                </mxCell>
                <mxCell id="491" value="" style="endArrow=diamondThin;endFill=0;endSize=24;html=1;edgeStyle=orthogonalEdgeStyle;rounded=0;" edge="1" parent="553" source="487" target="416">
                    <mxGeometry width="160" relative="1" as="geometry">
                        <mxPoint x="199" y="276" as="sourcePoint"/>
                        <mxPoint x="-61" y="276" as="targetPoint"/>
                    </mxGeometry>
                </mxCell>
                <mxCell id="550" style="edgeStyle=orthogonalEdgeStyle;shape=connector;rounded=0;html=1;labelBackgroundColor=default;strokeColor=default;fontFamily=Helvetica;fontSize=11;fontColor=#F7F7F7;endArrow=block;endFill=0;strokeWidth=1;endSize=15;" edge="1" parent="553" source="500" target="487">
                    <mxGeometry relative="1" as="geometry">
                        <Array as="points">
                            <mxPoint x="871" y="277"/>
                            <mxPoint x="1397" y="277"/>
                        </Array>
                    </mxGeometry>
                </mxCell>
                <mxCell id="500" value="OrderCreationState" style="swimlane;fontStyle=1;align=center;verticalAlign=top;childLayout=stackLayout;horizontal=1;startSize=26;horizontalStack=0;resizeParent=1;resizeParentMax=0;resizeLast=0;collapsible=1;marginBottom=0;" vertex="1" parent="553">
                    <mxGeometry x="736" y="318" width="313" height="86" as="geometry">
                        <mxRectangle x="1030" y="360" width="100" height="30" as="alternateBounds"/>
                    </mxGeometry>
                </mxCell>
                <mxCell id="509" value="- Context: Order" style="text;strokeColor=none;fillColor=none;align=left;verticalAlign=top;spacingLeft=4;spacingRight=4;overflow=hidden;rotatable=0;points=[[0,0.5],[1,0.5]];portConstraint=eastwest;" vertex="1" parent="500">
                    <mxGeometry y="26" width="313" height="26" as="geometry"/>
                </mxCell>
                <mxCell id="510" value="" style="line;strokeWidth=1;fillColor=none;align=left;verticalAlign=middle;spacingTop=-1;spacingLeft=3;spacingRight=3;rotatable=0;labelPosition=right;points=[];portConstraint=eastwest;strokeColor=inherit;" vertex="1" parent="500">
                    <mxGeometry y="52" width="313" height="8" as="geometry"/>
                </mxCell>
                <mxCell id="511" value="+ SetContext(Order o): void" style="text;strokeColor=none;fillColor=none;align=left;verticalAlign=top;spacingLeft=4;spacingRight=4;overflow=hidden;rotatable=0;points=[[0,0.5],[1,0.5]];portConstraint=eastwest;" vertex="1" parent="500">
                    <mxGeometry y="60" width="313" height="26" as="geometry"/>
                </mxCell>
                <mxCell id="552" style="edgeStyle=orthogonalEdgeStyle;shape=connector;rounded=0;html=1;labelBackgroundColor=default;strokeColor=default;fontFamily=Helvetica;fontSize=11;fontColor=#F7F7F7;endArrow=block;endFill=0;endSize=15;" edge="1" parent="553" source="543" target="487">
                    <mxGeometry relative="1" as="geometry">
                        <Array as="points">
                            <mxPoint x="1226" y="277"/>
                            <mxPoint x="1398" y="277"/>
                        </Array>
                    </mxGeometry>
                </mxCell>
                <mxCell id="543" value="OrderCanceledState" style="swimlane;fontStyle=1;align=center;verticalAlign=top;childLayout=stackLayout;horizontal=1;startSize=26;horizontalStack=0;resizeParent=1;resizeParentMax=0;resizeLast=0;collapsible=1;marginBottom=0;" vertex="1" parent="553">
                    <mxGeometry x="1070" y="318" width="313" height="86" as="geometry">
                        <mxRectangle x="1030" y="360" width="100" height="30" as="alternateBounds"/>
                    </mxGeometry>
                </mxCell>
                <mxCell id="544" value="- Context: Order" style="text;strokeColor=none;fillColor=none;align=left;verticalAlign=top;spacingLeft=4;spacingRight=4;overflow=hidden;rotatable=0;points=[[0,0.5],[1,0.5]];portConstraint=eastwest;" vertex="1" parent="543">
                    <mxGeometry y="26" width="313" height="26" as="geometry"/>
                </mxCell>
                <mxCell id="545" value="" style="line;strokeWidth=1;fillColor=none;align=left;verticalAlign=middle;spacingTop=-1;spacingLeft=3;spacingRight=3;rotatable=0;labelPosition=right;points=[];portConstraint=eastwest;strokeColor=inherit;" vertex="1" parent="543">
                    <mxGeometry y="52" width="313" height="8" as="geometry"/>
                </mxCell>
                <mxCell id="546" value="+ SetContext(Order o): void" style="text;strokeColor=none;fillColor=none;align=left;verticalAlign=top;spacingLeft=4;spacingRight=4;overflow=hidden;rotatable=0;points=[[0,0.5],[1,0.5]];portConstraint=eastwest;" vertex="1" parent="543">
                    <mxGeometry y="60" width="313" height="26" as="geometry"/>
                </mxCell>
                <mxCell id="549" value="dodać te wszystkie doThis metody do stanów" style="strokeWidth=1;shadow=0;dashed=0;align=center;html=1;shape=mxgraph.mockup.text.stickyNote2;fontColor=#666666;mainText=;fontSize=17;whiteSpace=wrap;fillColor=#ffffcc;strokeColor=#F62E00;fontFamily=Helvetica;" vertex="1" parent="553">
                    <mxGeometry x="1168" y="443" width="470" height="72" as="geometry"/>
                </mxCell>
                <mxCell id="539" value="OrderPaidState" style="swimlane;fontStyle=1;align=center;verticalAlign=top;childLayout=stackLayout;horizontal=1;startSize=26;horizontalStack=0;resizeParent=1;resizeParentMax=0;resizeLast=0;collapsible=1;marginBottom=0;" vertex="1" parent="553">
                    <mxGeometry x="1403" y="318" width="313" height="86" as="geometry">
                        <mxRectangle x="1030" y="360" width="100" height="30" as="alternateBounds"/>
                    </mxGeometry>
                </mxCell>
                <mxCell id="540" value="- Context: Order" style="text;strokeColor=none;fillColor=none;align=left;verticalAlign=top;spacingLeft=4;spacingRight=4;overflow=hidden;rotatable=0;points=[[0,0.5],[1,0.5]];portConstraint=eastwest;" vertex="1" parent="539">
                    <mxGeometry y="26" width="313" height="26" as="geometry"/>
                </mxCell>
                <mxCell id="541" value="" style="line;strokeWidth=1;fillColor=none;align=left;verticalAlign=middle;spacingTop=-1;spacingLeft=3;spacingRight=3;rotatable=0;labelPosition=right;points=[];portConstraint=eastwest;strokeColor=inherit;" vertex="1" parent="539">
                    <mxGeometry y="52" width="313" height="8" as="geometry"/>
                </mxCell>
                <mxCell id="542" value="+ SetContext(Order o): void" style="text;strokeColor=none;fillColor=none;align=left;verticalAlign=top;spacingLeft=4;spacingRight=4;overflow=hidden;rotatable=0;points=[[0,0.5],[1,0.5]];portConstraint=eastwest;" vertex="1" parent="539">
                    <mxGeometry y="60" width="313" height="26" as="geometry"/>
                </mxCell>
                <mxCell id="551" style="edgeStyle=orthogonalEdgeStyle;shape=connector;rounded=0;html=1;labelBackgroundColor=default;strokeColor=default;fontFamily=Helvetica;fontSize=11;fontColor=#F7F7F7;endArrow=block;endFill=0;endSize=15;" edge="1" parent="553" source="539" target="487">
                    <mxGeometry relative="1" as="geometry">
                        <Array as="points">
                            <mxPoint x="1560" y="277"/>
                            <mxPoint x="1398" y="277"/>
                        </Array>
                    </mxGeometry>
                </mxCell>
                <mxCell id="560" style="edgeStyle=orthogonalEdgeStyle;shape=connector;rounded=0;html=1;labelBackgroundColor=default;strokeColor=default;fontFamily=Helvetica;fontSize=11;fontColor=#050505;endArrow=block;endFill=0;endSize=15;" edge="1" parent="562" source="556" target="487">
                    <mxGeometry relative="1" as="geometry">
                        <Array as="points">
                            <mxPoint x="1890" y="277"/>
                            <mxPoint x="1397" y="277"/>
                        </Array>
                    </mxGeometry>
                </mxCell>
                <mxCell id="556" value="OrderConfirmedState" style="swimlane;fontStyle=1;align=center;verticalAlign=top;childLayout=stackLayout;horizontal=1;startSize=26;horizontalStack=0;resizeParent=1;resizeParentMax=0;resizeLast=0;collapsible=1;marginBottom=0;" vertex="1" parent="562">
                    <mxGeometry x="1733" y="319" width="313" height="86" as="geometry">
                        <mxRectangle x="1030" y="360" width="100" height="30" as="alternateBounds"/>
                    </mxGeometry>
                </mxCell>
                <mxCell id="557" value="- Context: Order" style="text;strokeColor=none;fillColor=none;align=left;verticalAlign=top;spacingLeft=4;spacingRight=4;overflow=hidden;rotatable=0;points=[[0,0.5],[1,0.5]];portConstraint=eastwest;" vertex="1" parent="556">
                    <mxGeometry y="26" width="313" height="26" as="geometry"/>
                </mxCell>
                <mxCell id="558" value="" style="line;strokeWidth=1;fillColor=none;align=left;verticalAlign=middle;spacingTop=-1;spacingLeft=3;spacingRight=3;rotatable=0;labelPosition=right;points=[];portConstraint=eastwest;strokeColor=inherit;" vertex="1" parent="556">
                    <mxGeometry y="52" width="313" height="8" as="geometry"/>
                </mxCell>
                <mxCell id="559" value="+ SetContext(Order o): void" style="text;strokeColor=none;fillColor=none;align=left;verticalAlign=top;spacingLeft=4;spacingRight=4;overflow=hidden;rotatable=0;points=[[0,0.5],[1,0.5]];portConstraint=eastwest;" vertex="1" parent="556">
                    <mxGeometry y="60" width="313" height="26" as="geometry"/>
                </mxCell>
                <mxCell id="637" value="" style="group" vertex="1" connectable="0" parent="1">
                    <mxGeometry x="4522" y="687" width="980" height="286" as="geometry"/>
                </mxCell>
                <mxCell id="262" value="LicenseActivationCodeGenerator" style="swimlane;fontStyle=1;align=center;verticalAlign=top;childLayout=stackLayout;horizontal=1;startSize=30;horizontalStack=0;resizeParent=1;resizeParentMax=0;resizeLast=0;collapsible=1;marginBottom=0;" vertex="1" parent="637">
                    <mxGeometry x="337" y="196" width="300" height="90" as="geometry">
                        <mxRectangle x="1030" y="360" width="100" height="30" as="alternateBounds"/>
                    </mxGeometry>
                </mxCell>
                <mxCell id="263" value=" " style="text;strokeColor=none;fillColor=none;align=left;verticalAlign=top;spacingLeft=4;spacingRight=4;overflow=hidden;rotatable=0;points=[[0,0.5],[1,0.5]];portConstraint=eastwest;" vertex="1" parent="262">
                    <mxGeometry y="30" width="300" height="26" as="geometry"/>
                </mxCell>
                <mxCell id="264" value="" style="line;strokeWidth=1;fillColor=none;align=left;verticalAlign=middle;spacingTop=-1;spacingLeft=3;spacingRight=3;rotatable=0;labelPosition=right;points=[];portConstraint=eastwest;strokeColor=inherit;" vertex="1" parent="262">
                    <mxGeometry y="56" width="300" height="8" as="geometry"/>
                </mxCell>
                <mxCell id="624" value="+ GetLicenseActivationCode(Workstation w): string" style="text;strokeColor=none;fillColor=none;align=left;verticalAlign=top;spacingLeft=4;spacingRight=4;overflow=hidden;rotatable=0;points=[[0,0.5],[1,0.5]];portConstraint=eastwest;" vertex="1" parent="262">
                    <mxGeometry y="64" width="300" height="26" as="geometry"/>
                </mxCell>
                <mxCell id="615" value="&lt;&lt;interface&gt;&gt;&#10;ILicenseActivationCodeStrategy" style="swimlane;fontStyle=1;align=center;verticalAlign=top;childLayout=stackLayout;horizontal=1;startSize=40;horizontalStack=0;resizeParent=1;resizeParentMax=0;resizeLast=0;collapsible=1;marginBottom=0;" vertex="1" parent="637">
                    <mxGeometry x="495" y="58" width="330" height="66" as="geometry">
                        <mxRectangle x="1030" y="360" width="100" height="30" as="alternateBounds"/>
                    </mxGeometry>
                </mxCell>
                <mxCell id="617" value="+ GetLicenseActivationCode(Workstation w): string" style="text;strokeColor=none;fillColor=none;align=left;verticalAlign=top;spacingLeft=4;spacingRight=4;overflow=hidden;rotatable=0;points=[[0,0.5],[1,0.5]];portConstraint=eastwest;" vertex="1" parent="615">
                    <mxGeometry y="40" width="330" height="26" as="geometry"/>
                </mxCell>
                <mxCell id="619" style="edgeStyle=orthogonalEdgeStyle;shape=connector;rounded=0;html=1;labelBackgroundColor=default;strokeColor=default;fontFamily=Helvetica;fontSize=11;fontColor=#050505;endArrow=block;endFill=0;endSize=15;" edge="1" parent="637" source="262" target="615">
                    <mxGeometry relative="1" as="geometry"/>
                </mxCell>
                <mxCell id="629" style="edgeStyle=orthogonalEdgeStyle;shape=connector;rounded=0;html=1;labelBackgroundColor=default;strokeColor=default;fontFamily=Helvetica;fontSize=11;fontColor=#050505;endArrow=block;endFill=0;endSize=15;" edge="1" parent="637" source="625" target="615">
                    <mxGeometry relative="1" as="geometry"/>
                </mxCell>
                <mxCell id="625" value="LicenseActivationCodeUserInput" style="swimlane;fontStyle=1;align=center;verticalAlign=top;childLayout=stackLayout;horizontal=1;startSize=30;horizontalStack=0;resizeParent=1;resizeParentMax=0;resizeLast=0;collapsible=1;marginBottom=0;" vertex="1" parent="637">
                    <mxGeometry x="680" y="196" width="300" height="90" as="geometry">
                        <mxRectangle x="1030" y="360" width="100" height="30" as="alternateBounds"/>
                    </mxGeometry>
                </mxCell>
                <mxCell id="626" value=" " style="text;strokeColor=none;fillColor=none;align=left;verticalAlign=top;spacingLeft=4;spacingRight=4;overflow=hidden;rotatable=0;points=[[0,0.5],[1,0.5]];portConstraint=eastwest;" vertex="1" parent="625">
                    <mxGeometry y="30" width="300" height="26" as="geometry"/>
                </mxCell>
                <mxCell id="627" value="" style="line;strokeWidth=1;fillColor=none;align=left;verticalAlign=middle;spacingTop=-1;spacingLeft=3;spacingRight=3;rotatable=0;labelPosition=right;points=[];portConstraint=eastwest;strokeColor=inherit;" vertex="1" parent="625">
                    <mxGeometry y="56" width="300" height="8" as="geometry"/>
                </mxCell>
                <mxCell id="628" value="+ GetLicenseActivationCode(Workstation w): string" style="text;strokeColor=none;fillColor=none;align=left;verticalAlign=top;spacingLeft=4;spacingRight=4;overflow=hidden;rotatable=0;points=[[0,0.5],[1,0.5]];portConstraint=eastwest;" vertex="1" parent="625">
                    <mxGeometry y="64" width="300" height="26" as="geometry"/>
                </mxCell>
                <mxCell id="631" style="edgeStyle=orthogonalEdgeStyle;shape=connector;rounded=0;html=1;entryX=1;entryY=0;entryDx=0;entryDy=0;labelBackgroundColor=default;strokeColor=default;fontFamily=Helvetica;fontSize=11;fontColor=default;endArrow=classic;endFill=1;endSize=6;" edge="1" parent="637" source="630" target="615">
                    <mxGeometry relative="1" as="geometry"/>
                </mxCell>
                <mxCell id="630" value="&lt;span style=&quot;font-size: 12px; font-weight: 700;&quot;&gt;&lt;font color=&quot;#0f0f0f&quot;&gt;Strategy&lt;/font&gt;&lt;/span&gt;" style="shape=note;strokeWidth=2;fontSize=14;size=20;whiteSpace=wrap;html=1;fillColor=#fff2cc;strokeColor=#d6b656;fontColor=#666600;" vertex="1" parent="637">
                    <mxGeometry x="769" width="110" height="30" as="geometry"/>
                </mxCell>
                <mxCell id="632" value="Context" style="swimlane;fontStyle=1;align=center;verticalAlign=top;childLayout=stackLayout;horizontal=1;startSize=30;horizontalStack=0;resizeParent=1;resizeParentMax=0;resizeLast=0;collapsible=1;marginBottom=0;" vertex="1" parent="637">
                    <mxGeometry y="48" width="300" height="90" as="geometry">
                        <mxRectangle x="1030" y="360" width="100" height="30" as="alternateBounds"/>
                    </mxGeometry>
                </mxCell>
                <mxCell id="633" value="- Strategy: ILicenseActivationCodeStrategy" style="text;strokeColor=none;fillColor=none;align=left;verticalAlign=top;spacingLeft=4;spacingRight=4;overflow=hidden;rotatable=0;points=[[0,0.5],[1,0.5]];portConstraint=eastwest;" vertex="1" parent="632">
                    <mxGeometry y="30" width="300" height="26" as="geometry"/>
                </mxCell>
                <mxCell id="634" value="" style="line;strokeWidth=1;fillColor=none;align=left;verticalAlign=middle;spacingTop=-1;spacingLeft=3;spacingRight=3;rotatable=0;labelPosition=right;points=[];portConstraint=eastwest;strokeColor=inherit;" vertex="1" parent="632">
                    <mxGeometry y="56" width="300" height="8" as="geometry"/>
                </mxCell>
                <mxCell id="635" value="+ SetStrategy(ILicenseActivationCodeStrategy s): void" style="text;strokeColor=none;fillColor=none;align=left;verticalAlign=top;spacingLeft=4;spacingRight=4;overflow=hidden;rotatable=0;points=[[0,0.5],[1,0.5]];portConstraint=eastwest;" vertex="1" parent="632">
                    <mxGeometry y="64" width="300" height="26" as="geometry"/>
                </mxCell>
                <mxCell id="636" value="" style="endArrow=diamondThin;endFill=0;endSize=24;html=1;edgeStyle=orthogonalEdgeStyle;rounded=0;" edge="1" parent="637" source="615" target="633">
                    <mxGeometry width="160" relative="1" as="geometry">
                        <mxPoint x="-58.99999999999909" y="310" as="sourcePoint"/>
                        <mxPoint x="216" y="203" as="targetPoint"/>
                    </mxGeometry>
                </mxCell>
                <mxCell id="638" value="licence crateor" style="strokeWidth=1;shadow=0;dashed=0;align=center;html=1;shape=mxgraph.mockup.text.stickyNote2;fontColor=#666666;mainText=;fontSize=17;whiteSpace=wrap;fillColor=#ffffcc;strokeColor=#F62E00;fontFamily=Helvetica;" vertex="1" parent="1">
                    <mxGeometry x="4313" y="804" width="299" height="72" as="geometry"/>
                </mxCell>
            </root>
        </mxGraphModel>
    </diagram>
</mxfile>